<?xml version="1.0" standalone="no"?>
<mlt LC_NUMERIC="C" version="7.33.0" title="Shotcut version 25.05.11" producer="main_bin">
  <profile description="HD 1080p 25 fps" width="1920" height="1080" progressive="1" sample_aspect_num="1" sample_aspect_den="1" display_aspect_num="16" display_aspect_den="9" frame_rate_num="25" frame_rate_den="1" colorspace="709"/>
  <chain id="chain0" out="00:01:10.760">
    <property name="length">00:01:10.800</property>
    <property name="eof">pause</property>
    <property name="resource">gravações/pedidoTrocaDevolucao.mp4</property>
    <property name="mlt_service">avformat-novalidate</property>
    <property name="meta.media.nb_streams">2</property>
    <property name="meta.media.0.stream.type">video</property>
    <property name="meta.media.0.stream.frame_rate">60</property>
    <property name="meta.media.0.stream.sample_aspect_ratio">0</property>
    <property name="meta.media.0.codec.width">1280</property>
    <property name="meta.media.0.codec.height">720</property>
    <property name="meta.media.0.codec.rotate">0</property>
    <property name="meta.media.0.codec.pix_fmt">yuv420p</property>
    <property name="meta.media.0.codec.sample_aspect_ratio">1</property>
    <property name="meta.media.0.codec.colorspace">709</property>
    <property name="meta.media.0.codec.color_trc">1</property>
    <property name="meta.media.0.codec.name">h264</property>
    <property name="meta.media.0.codec.long_name">H.264 / AVC / MPEG-4 AVC / MPEG-4 part 10</property>
    <property name="meta.media.0.codec.bit_rate">485237</property>
    <property name="meta.attr.0.stream.handler_name.markup">VideoHandler</property>
    <property name="meta.attr.0.stream.vendor_id.markup">[0][0][0][0]</property>
    <property name="meta.media.1.stream.type">audio</property>
    <property name="meta.media.1.codec.sample_fmt">fltp</property>
    <property name="meta.media.1.codec.sample_rate">48000</property>
    <property name="meta.media.1.codec.channels">2</property>
    <property name="meta.media.1.codec.layout">stereo</property>
    <property name="meta.media.1.codec.name">aac</property>
    <property name="meta.media.1.codec.long_name">AAC (Advanced Audio Coding)</property>
    <property name="meta.media.1.codec.bit_rate">192000</property>
    <property name="meta.attr.1.stream.handler_name.markup">SoundHandler</property>
    <property name="meta.attr.1.stream.vendor_id.markup">[0][0][0][0]</property>
    <property name="meta.attr.major_brand.markup">isom</property>
    <property name="meta.attr.minor_version.markup">512</property>
    <property name="meta.attr.compatible_brands.markup">isomiso2avc1mp41</property>
    <property name="meta.attr.encoder.markup">Lavf61.1.100</property>
    <property name="seekable">1</property>
    <property name="meta.media.sample_aspect_num">1</property>
    <property name="meta.media.sample_aspect_den">1</property>
    <property name="audio_index">1</property>
    <property name="video_index">0</property>
    <property name="creation_time">2025-07-03T23:57:45</property>
    <property name="vstream">0</property>
    <property name="meta.media.frame_rate_num">60</property>
    <property name="meta.media.frame_rate_den">1</property>
    <property name="meta.media.colorspace">709</property>
    <property name="meta.media.color_trc">1</property>
    <property name="meta.media.has_b_frames">2</property>
    <property name="meta.media.width">1280</property>
    <property name="meta.media.height">720</property>
    <property name="meta.media.aspect_ratio">1</property>
    <property name="meta.media.color_range">mpeg</property>
    <property name="astream">0</property>
    <property name="shotcut:skipConvert">1</property>
    <property name="xml">was here</property>
    <property name="shotcut:hash">5abd9bf68125b94c9833ce51bae79a92</property>
  </chain>
  <chain id="chain1" out="00:00:18.320">
    <property name="length">00:00:18.360</property>
    <property name="eof">pause</property>
    <property name="resource">gravações/pedidoDevolucao.mp4</property>
    <property name="mlt_service">avformat-novalidate</property>
    <property name="meta.media.nb_streams">2</property>
    <property name="meta.media.0.stream.type">video</property>
    <property name="meta.media.0.stream.frame_rate">60</property>
    <property name="meta.media.0.stream.sample_aspect_ratio">0</property>
    <property name="meta.media.0.codec.width">1280</property>
    <property name="meta.media.0.codec.height">720</property>
    <property name="meta.media.0.codec.rotate">0</property>
    <property name="meta.media.0.codec.pix_fmt">yuv420p</property>
    <property name="meta.media.0.codec.sample_aspect_ratio">1</property>
    <property name="meta.media.0.codec.colorspace">709</property>
    <property name="meta.media.0.codec.color_trc">1</property>
    <property name="meta.media.0.codec.name">h264</property>
    <property name="meta.media.0.codec.long_name">H.264 / AVC / MPEG-4 AVC / MPEG-4 part 10</property>
    <property name="meta.media.0.codec.bit_rate">474538</property>
    <property name="meta.attr.0.stream.handler_name.markup">VideoHandler</property>
    <property name="meta.attr.0.stream.vendor_id.markup">[0][0][0][0]</property>
    <property name="meta.media.1.stream.type">audio</property>
    <property name="meta.media.1.codec.sample_fmt">fltp</property>
    <property name="meta.media.1.codec.sample_rate">48000</property>
    <property name="meta.media.1.codec.channels">2</property>
    <property name="meta.media.1.codec.layout">stereo</property>
    <property name="meta.media.1.codec.name">aac</property>
    <property name="meta.media.1.codec.long_name">AAC (Advanced Audio Coding)</property>
    <property name="meta.media.1.codec.bit_rate">192000</property>
    <property name="meta.attr.1.stream.handler_name.markup">SoundHandler</property>
    <property name="meta.attr.1.stream.vendor_id.markup">[0][0][0][0]</property>
    <property name="meta.attr.major_brand.markup">isom</property>
    <property name="meta.attr.minor_version.markup">512</property>
    <property name="meta.attr.compatible_brands.markup">isomiso2avc1mp41</property>
    <property name="meta.attr.encoder.markup">Lavf61.1.100</property>
    <property name="seekable">1</property>
    <property name="meta.media.sample_aspect_num">1</property>
    <property name="meta.media.sample_aspect_den">1</property>
    <property name="audio_index">1</property>
    <property name="video_index">0</property>
    <property name="creation_time">2025-07-04T01:44:14</property>
    <property name="vstream">0</property>
    <property name="meta.media.frame_rate_num">60</property>
    <property name="meta.media.frame_rate_den">1</property>
    <property name="meta.media.colorspace">709</property>
    <property name="meta.media.color_trc">1</property>
    <property name="meta.media.has_b_frames">2</property>
    <property name="meta.media.width">1280</property>
    <property name="meta.media.height">720</property>
    <property name="meta.media.aspect_ratio">1</property>
    <property name="meta.media.color_range">mpeg</property>
    <property name="astream">0</property>
    <property name="shotcut:skipConvert">1</property>
    <property name="xml">was here</property>
    <property name="shotcut:hash">a7f87276a894420a23ea725c6f464f54</property>
  </chain>
  <chain id="chain2" out="00:00:55.480">
    <property name="length">00:00:55.520</property>
    <property name="eof">pause</property>
    <property name="resource">gravações/pedidoTroca.mp4</property>
    <property name="mlt_service">avformat-novalidate</property>
    <property name="meta.media.nb_streams">2</property>
    <property name="meta.media.0.stream.type">video</property>
    <property name="meta.media.0.stream.frame_rate">60</property>
    <property name="meta.media.0.stream.sample_aspect_ratio">0</property>
    <property name="meta.media.0.codec.width">1280</property>
    <property name="meta.media.0.codec.height">720</property>
    <property name="meta.media.0.codec.rotate">0</property>
    <property name="meta.media.0.codec.pix_fmt">yuv420p</property>
    <property name="meta.media.0.codec.sample_aspect_ratio">1</property>
    <property name="meta.media.0.codec.colorspace">709</property>
    <property name="meta.media.0.codec.color_trc">1</property>
    <property name="meta.media.0.codec.name">h264</property>
    <property name="meta.media.0.codec.long_name">H.264 / AVC / MPEG-4 AVC / MPEG-4 part 10</property>
    <property name="meta.media.0.codec.bit_rate">492059</property>
    <property name="meta.attr.0.stream.handler_name.markup">VideoHandler</property>
    <property name="meta.attr.0.stream.vendor_id.markup">[0][0][0][0]</property>
    <property name="meta.media.1.stream.type">audio</property>
    <property name="meta.media.1.codec.sample_fmt">fltp</property>
    <property name="meta.media.1.codec.sample_rate">48000</property>
    <property name="meta.media.1.codec.channels">2</property>
    <property name="meta.media.1.codec.layout">stereo</property>
    <property name="meta.media.1.codec.name">aac</property>
    <property name="meta.media.1.codec.long_name">AAC (Advanced Audio Coding)</property>
    <property name="meta.media.1.codec.bit_rate">192000</property>
    <property name="meta.attr.1.stream.handler_name.markup">SoundHandler</property>
    <property name="meta.attr.1.stream.vendor_id.markup">[0][0][0][0]</property>
    <property name="meta.attr.major_brand.markup">isom</property>
    <property name="meta.attr.minor_version.markup">512</property>
    <property name="meta.attr.compatible_brands.markup">isomiso2avc1mp41</property>
    <property name="meta.attr.encoder.markup">Lavf61.1.100</property>
    <property name="seekable">1</property>
    <property name="meta.media.sample_aspect_num">1</property>
    <property name="meta.media.sample_aspect_den">1</property>
    <property name="audio_index">1</property>
    <property name="video_index">0</property>
    <property name="creation_time">2025-07-03T23:53:55</property>
    <property name="vstream">0</property>
    <property name="meta.media.frame_rate_num">60</property>
    <property name="meta.media.frame_rate_den">1</property>
    <property name="meta.media.colorspace">709</property>
    <property name="meta.media.color_trc">1</property>
    <property name="meta.media.has_b_frames">2</property>
    <property name="meta.media.width">1280</property>
    <property name="meta.media.height">720</property>
    <property name="meta.media.aspect_ratio">1</property>
    <property name="meta.media.color_range">mpeg</property>
    <property name="astream">0</property>
    <property name="shotcut:skipConvert">1</property>
    <property name="xml">was here</property>
    <property name="shotcut:hash">f58e17e510f9dc39ddd2204732063c3e</property>
  </chain>
  <chain id="chain3" out="00:00:17.160">
    <property name="length">00:00:17.200</property>
    <property name="eof">pause</property>
    <property name="resource">gravações/estoque.mp4</property>
    <property name="mlt_service">avformat-novalidate</property>
    <property name="meta.media.nb_streams">2</property>
    <property name="meta.media.0.stream.type">video</property>
    <property name="meta.media.0.stream.frame_rate">60</property>
    <property name="meta.media.0.stream.sample_aspect_ratio">0</property>
    <property name="meta.media.0.codec.width">1280</property>
    <property name="meta.media.0.codec.height">720</property>
    <property name="meta.media.0.codec.rotate">0</property>
    <property name="meta.media.0.codec.pix_fmt">yuv420p</property>
    <property name="meta.media.0.codec.sample_aspect_ratio">1</property>
    <property name="meta.media.0.codec.colorspace">709</property>
    <property name="meta.media.0.codec.color_trc">1</property>
    <property name="meta.media.0.codec.name">h264</property>
    <property name="meta.media.0.codec.long_name">H.264 / AVC / MPEG-4 AVC / MPEG-4 part 10</property>
    <property name="meta.media.0.codec.bit_rate">498559</property>
    <property name="meta.attr.0.stream.handler_name.markup">VideoHandler</property>
    <property name="meta.attr.0.stream.vendor_id.markup">[0][0][0][0]</property>
    <property name="meta.media.1.stream.type">audio</property>
    <property name="meta.media.1.codec.sample_fmt">fltp</property>
    <property name="meta.media.1.codec.sample_rate">48000</property>
    <property name="meta.media.1.codec.channels">2</property>
    <property name="meta.media.1.codec.layout">stereo</property>
    <property name="meta.media.1.codec.name">aac</property>
    <property name="meta.media.1.codec.long_name">AAC (Advanced Audio Coding)</property>
    <property name="meta.media.1.codec.bit_rate">192000</property>
    <property name="meta.attr.1.stream.handler_name.markup">SoundHandler</property>
    <property name="meta.attr.1.stream.vendor_id.markup">[0][0][0][0]</property>
    <property name="meta.attr.major_brand.markup">isom</property>
    <property name="meta.attr.minor_version.markup">512</property>
    <property name="meta.attr.compatible_brands.markup">isomiso2avc1mp41</property>
    <property name="meta.attr.encoder.markup">Lavf61.1.100</property>
    <property name="seekable">1</property>
    <property name="meta.media.sample_aspect_num">1</property>
    <property name="meta.media.sample_aspect_den">1</property>
    <property name="audio_index">1</property>
    <property name="video_index">0</property>
    <property name="creation_time">2025-07-03T22:09:57</property>
    <property name="vstream">0</property>
    <property name="meta.media.frame_rate_num">60</property>
    <property name="meta.media.frame_rate_den">1</property>
    <property name="meta.media.colorspace">709</property>
    <property name="meta.media.color_trc">1</property>
    <property name="meta.media.has_b_frames">2</property>
    <property name="meta.media.width">1280</property>
    <property name="meta.media.height">720</property>
    <property name="meta.media.aspect_ratio">1</property>
    <property name="meta.media.color_range">mpeg</property>
    <property name="astream">0</property>
    <property name="shotcut:skipConvert">1</property>
    <property name="xml">was here</property>
    <property name="shotcut:hash">afe3dacc0252e2de74005f56ae5c356d</property>
  </chain>
  <chain id="chain4" out="00:00:17.600">
    <property name="length">00:00:17.640</property>
    <property name="eof">pause</property>
    <property name="resource">gravações/analiseTest.mp4</property>
    <property name="mlt_service">avformat-novalidate</property>
    <property name="meta.media.nb_streams">2</property>
    <property name="meta.media.0.stream.type">video</property>
    <property name="meta.media.0.stream.frame_rate">60</property>
    <property name="meta.media.0.stream.sample_aspect_ratio">0</property>
    <property name="meta.media.0.codec.width">1280</property>
    <property name="meta.media.0.codec.height">720</property>
    <property name="meta.media.0.codec.rotate">0</property>
    <property name="meta.media.0.codec.pix_fmt">yuv420p</property>
    <property name="meta.media.0.codec.sample_aspect_ratio">1</property>
    <property name="meta.media.0.codec.colorspace">709</property>
    <property name="meta.media.0.codec.color_trc">1</property>
    <property name="meta.media.0.codec.name">h264</property>
    <property name="meta.media.0.codec.long_name">H.264 / AVC / MPEG-4 AVC / MPEG-4 part 10</property>
    <property name="meta.media.0.codec.bit_rate">413162</property>
    <property name="meta.attr.0.stream.handler_name.markup">VideoHandler</property>
    <property name="meta.attr.0.stream.vendor_id.markup">[0][0][0][0]</property>
    <property name="meta.media.1.stream.type">audio</property>
    <property name="meta.media.1.codec.sample_fmt">fltp</property>
    <property name="meta.media.1.codec.sample_rate">48000</property>
    <property name="meta.media.1.codec.channels">2</property>
    <property name="meta.media.1.codec.layout">stereo</property>
    <property name="meta.media.1.codec.name">aac</property>
    <property name="meta.media.1.codec.long_name">AAC (Advanced Audio Coding)</property>
    <property name="meta.media.1.codec.bit_rate">192000</property>
    <property name="meta.attr.1.stream.handler_name.markup">SoundHandler</property>
    <property name="meta.attr.1.stream.vendor_id.markup">[0][0][0][0]</property>
    <property name="meta.attr.major_brand.markup">isom</property>
    <property name="meta.attr.minor_version.markup">512</property>
    <property name="meta.attr.compatible_brands.markup">isomiso2avc1mp41</property>
    <property name="meta.attr.encoder.markup">Lavf61.1.100</property>
    <property name="seekable">1</property>
    <property name="meta.media.sample_aspect_num">1</property>
    <property name="meta.media.sample_aspect_den">1</property>
    <property name="audio_index">1</property>
    <property name="video_index">0</property>
    <property name="creation_time">2025-07-03T22:09:31</property>
    <property name="vstream">0</property>
    <property name="meta.media.frame_rate_num">60</property>
    <property name="meta.media.frame_rate_den">1</property>
    <property name="meta.media.colorspace">709</property>
    <property name="meta.media.color_trc">1</property>
    <property name="meta.media.has_b_frames">2</property>
    <property name="meta.media.width">1280</property>
    <property name="meta.media.height">720</property>
    <property name="meta.media.aspect_ratio">1</property>
    <property name="meta.media.color_range">mpeg</property>
    <property name="astream">0</property>
    <property name="shotcut:skipConvert">1</property>
    <property name="xml">was here</property>
    <property name="shotcut:hash">4008acaef469e5d06c964551cdcae740</property>
  </chain>
  <chain id="chain5" out="00:00:32.280">
    <property name="length">00:00:32.320</property>
    <property name="eof">pause</property>
    <property name="resource">gravações/chatIATest.mp4</property>
    <property name="mlt_service">avformat-novalidate</property>
    <property name="meta.media.nb_streams">2</property>
    <property name="meta.media.0.stream.type">video</property>
    <property name="meta.media.0.stream.frame_rate">60</property>
    <property name="meta.media.0.stream.sample_aspect_ratio">0</property>
    <property name="meta.media.0.codec.width">1280</property>
    <property name="meta.media.0.codec.height">720</property>
    <property name="meta.media.0.codec.rotate">0</property>
    <property name="meta.media.0.codec.pix_fmt">yuv420p</property>
    <property name="meta.media.0.codec.sample_aspect_ratio">1</property>
    <property name="meta.media.0.codec.colorspace">709</property>
    <property name="meta.media.0.codec.color_trc">1</property>
    <property name="meta.media.0.codec.name">h264</property>
    <property name="meta.media.0.codec.long_name">H.264 / AVC / MPEG-4 AVC / MPEG-4 part 10</property>
    <property name="meta.media.0.codec.bit_rate">463134</property>
    <property name="meta.attr.0.stream.handler_name.markup">VideoHandler</property>
    <property name="meta.attr.0.stream.vendor_id.markup">[0][0][0][0]</property>
    <property name="meta.media.1.stream.type">audio</property>
    <property name="meta.media.1.codec.sample_fmt">fltp</property>
    <property name="meta.media.1.codec.sample_rate">48000</property>
    <property name="meta.media.1.codec.channels">2</property>
    <property name="meta.media.1.codec.layout">stereo</property>
    <property name="meta.media.1.codec.name">aac</property>
    <property name="meta.media.1.codec.long_name">AAC (Advanced Audio Coding)</property>
    <property name="meta.media.1.codec.bit_rate">192000</property>
    <property name="meta.attr.1.stream.handler_name.markup">SoundHandler</property>
    <property name="meta.attr.1.stream.vendor_id.markup">[0][0][0][0]</property>
    <property name="meta.attr.major_brand.markup">isom</property>
    <property name="meta.attr.minor_version.markup">512</property>
    <property name="meta.attr.compatible_brands.markup">isomiso2avc1mp41</property>
    <property name="meta.attr.encoder.markup">Lavf61.1.100</property>
    <property name="seekable">1</property>
    <property name="meta.media.sample_aspect_num">1</property>
    <property name="meta.media.sample_aspect_den">1</property>
    <property name="audio_index">1</property>
    <property name="video_index">0</property>
    <property name="creation_time">2025-07-03T22:03:55</property>
    <property name="vstream">0</property>
    <property name="meta.media.frame_rate_num">60</property>
    <property name="meta.media.frame_rate_den">1</property>
    <property name="meta.media.colorspace">709</property>
    <property name="meta.media.color_trc">1</property>
    <property name="meta.media.has_b_frames">2</property>
    <property name="meta.media.width">1280</property>
    <property name="meta.media.height">720</property>
    <property name="meta.media.aspect_ratio">1</property>
    <property name="meta.media.color_range">mpeg</property>
    <property name="astream">0</property>
    <property name="shotcut:skipConvert">1</property>
    <property name="xml">was here</property>
    <property name="shotcut:hash">17071ebf424033a487ff8eefb202bbc0</property>
  </chain>
  <chain id="chain6" out="00:01:05.360">
    <property name="length">00:01:05.400</property>
    <property name="eof">pause</property>
    <property name="resource">gravações/cadastrarCliente.mp4</property>
    <property name="mlt_service">avformat-novalidate</property>
    <property name="meta.media.nb_streams">2</property>
    <property name="meta.media.0.stream.type">video</property>
    <property name="meta.media.0.stream.frame_rate">60</property>
    <property name="meta.media.0.stream.sample_aspect_ratio">0</property>
    <property name="meta.media.0.codec.width">1280</property>
    <property name="meta.media.0.codec.height">720</property>
    <property name="meta.media.0.codec.rotate">0</property>
    <property name="meta.media.0.codec.pix_fmt">yuv420p</property>
    <property name="meta.media.0.codec.sample_aspect_ratio">1</property>
    <property name="meta.media.0.codec.colorspace">709</property>
    <property name="meta.media.0.codec.color_trc">1</property>
    <property name="meta.media.0.codec.name">h264</property>
    <property name="meta.media.0.codec.long_name">H.264 / AVC / MPEG-4 AVC / MPEG-4 part 10</property>
    <property name="meta.media.0.codec.bit_rate">334280</property>
    <property name="meta.attr.0.stream.handler_name.markup">VideoHandler</property>
    <property name="meta.attr.0.stream.vendor_id.markup">[0][0][0][0]</property>
    <property name="meta.media.1.stream.type">audio</property>
    <property name="meta.media.1.codec.sample_fmt">fltp</property>
    <property name="meta.media.1.codec.sample_rate">48000</property>
    <property name="meta.media.1.codec.channels">2</property>
    <property name="meta.media.1.codec.layout">stereo</property>
    <property name="meta.media.1.codec.name">aac</property>
    <property name="meta.media.1.codec.long_name">AAC (Advanced Audio Coding)</property>
    <property name="meta.media.1.codec.bit_rate">192000</property>
    <property name="meta.attr.1.stream.handler_name.markup">SoundHandler</property>
    <property name="meta.attr.1.stream.vendor_id.markup">[0][0][0][0]</property>
    <property name="meta.attr.major_brand.markup">isom</property>
    <property name="meta.attr.minor_version.markup">512</property>
    <property name="meta.attr.compatible_brands.markup">isomiso2avc1mp41</property>
    <property name="meta.attr.encoder.markup">Lavf61.1.100</property>
    <property name="seekable">1</property>
    <property name="meta.media.sample_aspect_num">1</property>
    <property name="meta.media.sample_aspect_den">1</property>
    <property name="audio_index">1</property>
    <property name="video_index">0</property>
    <property name="creation_time">2025-07-03T21:53:37</property>
    <property name="vstream">0</property>
    <property name="meta.media.frame_rate_num">60</property>
    <property name="meta.media.frame_rate_den">1</property>
    <property name="meta.media.colorspace">709</property>
    <property name="meta.media.color_trc">1</property>
    <property name="meta.media.has_b_frames">2</property>
    <property name="meta.media.width">1280</property>
    <property name="meta.media.height">720</property>
    <property name="meta.media.aspect_ratio">1</property>
    <property name="meta.media.color_range">mpeg</property>
    <property name="astream">0</property>
    <property name="shotcut:skipConvert">1</property>
    <property name="xml">was here</property>
    <property name="shotcut:hash">b99c0d0c3734f7adad4f2889925ddf7d</property>
  </chain>
  <chain id="chain7" out="00:00:35.520">
    <property name="length">00:00:35.560</property>
    <property name="eof">pause</property>
    <property name="resource">gravações/cadastroEndereco.mp4</property>
    <property name="mlt_service">avformat-novalidate</property>
    <property name="meta.media.nb_streams">2</property>
    <property name="meta.media.0.stream.type">video</property>
    <property name="meta.media.0.stream.frame_rate">60</property>
    <property name="meta.media.0.stream.sample_aspect_ratio">0</property>
    <property name="meta.media.0.codec.width">1280</property>
    <property name="meta.media.0.codec.height">720</property>
    <property name="meta.media.0.codec.rotate">0</property>
    <property name="meta.media.0.codec.pix_fmt">yuv420p</property>
    <property name="meta.media.0.codec.sample_aspect_ratio">1</property>
    <property name="meta.media.0.codec.colorspace">709</property>
    <property name="meta.media.0.codec.color_trc">1</property>
    <property name="meta.media.0.codec.name">h264</property>
    <property name="meta.media.0.codec.long_name">H.264 / AVC / MPEG-4 AVC / MPEG-4 part 10</property>
    <property name="meta.media.0.codec.bit_rate">363909</property>
    <property name="meta.attr.0.stream.handler_name.markup">VideoHandler</property>
    <property name="meta.attr.0.stream.vendor_id.markup">[0][0][0][0]</property>
    <property name="meta.media.1.stream.type">audio</property>
    <property name="meta.media.1.codec.sample_fmt">fltp</property>
    <property name="meta.media.1.codec.sample_rate">48000</property>
    <property name="meta.media.1.codec.channels">2</property>
    <property name="meta.media.1.codec.layout">stereo</property>
    <property name="meta.media.1.codec.name">aac</property>
    <property name="meta.media.1.codec.long_name">AAC (Advanced Audio Coding)</property>
    <property name="meta.media.1.codec.bit_rate">192000</property>
    <property name="meta.attr.1.stream.handler_name.markup">SoundHandler</property>
    <property name="meta.attr.1.stream.vendor_id.markup">[0][0][0][0]</property>
    <property name="meta.attr.major_brand.markup">isom</property>
    <property name="meta.attr.minor_version.markup">512</property>
    <property name="meta.attr.compatible_brands.markup">isomiso2avc1mp41</property>
    <property name="meta.attr.encoder.markup">Lavf61.1.100</property>
    <property name="seekable">1</property>
    <property name="meta.media.sample_aspect_num">1</property>
    <property name="meta.media.sample_aspect_den">1</property>
    <property name="audio_index">1</property>
    <property name="video_index">0</property>
    <property name="creation_time">2025-07-03T21:55:22</property>
    <property name="vstream">0</property>
    <property name="meta.media.frame_rate_num">60</property>
    <property name="meta.media.frame_rate_den">1</property>
    <property name="meta.media.colorspace">709</property>
    <property name="meta.media.color_trc">1</property>
    <property name="meta.media.has_b_frames">2</property>
    <property name="meta.media.width">1280</property>
    <property name="meta.media.height">720</property>
    <property name="meta.media.aspect_ratio">1</property>
    <property name="meta.media.color_range">mpeg</property>
    <property name="astream">0</property>
    <property name="shotcut:skipConvert">1</property>
    <property name="xml">was here</property>
    <property name="shotcut:hash">ddff9e14197f2b65cfa682e8ba6920c3</property>
  </chain>
  <chain id="chain8" out="00:00:30.040">
    <property name="length">00:00:30.080</property>
    <property name="eof">pause</property>
    <property name="resource">gravações/cadastroCartao.mp4</property>
    <property name="mlt_service">avformat-novalidate</property>
    <property name="meta.media.nb_streams">2</property>
    <property name="meta.media.0.stream.type">video</property>
    <property name="meta.media.0.stream.frame_rate">60</property>
    <property name="meta.media.0.stream.sample_aspect_ratio">0</property>
    <property name="meta.media.0.codec.width">1280</property>
    <property name="meta.media.0.codec.height">720</property>
    <property name="meta.media.0.codec.rotate">0</property>
    <property name="meta.media.0.codec.pix_fmt">yuv420p</property>
    <property name="meta.media.0.codec.sample_aspect_ratio">1</property>
    <property name="meta.media.0.codec.colorspace">709</property>
    <property name="meta.media.0.codec.color_trc">1</property>
    <property name="meta.media.0.codec.name">h264</property>
    <property name="meta.media.0.codec.long_name">H.264 / AVC / MPEG-4 AVC / MPEG-4 part 10</property>
    <property name="meta.media.0.codec.bit_rate">376949</property>
    <property name="meta.attr.0.stream.handler_name.markup">VideoHandler</property>
    <property name="meta.attr.0.stream.vendor_id.markup">[0][0][0][0]</property>
    <property name="meta.media.1.stream.type">audio</property>
    <property name="meta.media.1.codec.sample_fmt">fltp</property>
    <property name="meta.media.1.codec.sample_rate">48000</property>
    <property name="meta.media.1.codec.channels">2</property>
    <property name="meta.media.1.codec.layout">stereo</property>
    <property name="meta.media.1.codec.name">aac</property>
    <property name="meta.media.1.codec.long_name">AAC (Advanced Audio Coding)</property>
    <property name="meta.media.1.codec.bit_rate">192000</property>
    <property name="meta.attr.1.stream.handler_name.markup">SoundHandler</property>
    <property name="meta.attr.1.stream.vendor_id.markup">[0][0][0][0]</property>
    <property name="meta.attr.major_brand.markup">isom</property>
    <property name="meta.attr.minor_version.markup">512</property>
    <property name="meta.attr.compatible_brands.markup">isomiso2avc1mp41</property>
    <property name="meta.attr.encoder.markup">Lavf61.1.100</property>
    <property name="seekable">1</property>
    <property name="meta.media.sample_aspect_num">1</property>
    <property name="meta.media.sample_aspect_den">1</property>
    <property name="audio_index">1</property>
    <property name="video_index">0</property>
    <property name="creation_time">2025-07-03T21:56:14</property>
    <property name="vstream">0</property>
    <property name="meta.media.frame_rate_num">60</property>
    <property name="meta.media.frame_rate_den">1</property>
    <property name="meta.media.colorspace">709</property>
    <property name="meta.media.color_trc">1</property>
    <property name="meta.media.has_b_frames">2</property>
    <property name="meta.media.width">1280</property>
    <property name="meta.media.height">720</property>
    <property name="meta.media.aspect_ratio">1</property>
    <property name="meta.media.color_range">mpeg</property>
    <property name="astream">0</property>
    <property name="shotcut:skipConvert">1</property>
    <property name="xml">was here</property>
    <property name="shotcut:hash">0b4de9783cf2e18e76a524e2325489a3</property>
  </chain>
  <chain id="chain9" out="00:00:28.720">
    <property name="length">00:00:28.760</property>
    <property name="eof">pause</property>
    <property name="resource">gravações/visualizarClientes.mp4</property>
    <property name="mlt_service">avformat-novalidate</property>
    <property name="meta.media.nb_streams">2</property>
    <property name="meta.media.0.stream.type">video</property>
    <property name="meta.media.0.stream.frame_rate">60</property>
    <property name="meta.media.0.stream.sample_aspect_ratio">0</property>
    <property name="meta.media.0.codec.width">1280</property>
    <property name="meta.media.0.codec.height">720</property>
    <property name="meta.media.0.codec.rotate">0</property>
    <property name="meta.media.0.codec.pix_fmt">yuv420p</property>
    <property name="meta.media.0.codec.sample_aspect_ratio">1</property>
    <property name="meta.media.0.codec.colorspace">709</property>
    <property name="meta.media.0.codec.color_trc">1</property>
    <property name="meta.media.0.codec.name">h264</property>
    <property name="meta.media.0.codec.long_name">H.264 / AVC / MPEG-4 AVC / MPEG-4 part 10</property>
    <property name="meta.media.0.codec.bit_rate">379673</property>
    <property name="meta.attr.0.stream.handler_name.markup">VideoHandler</property>
    <property name="meta.attr.0.stream.vendor_id.markup">[0][0][0][0]</property>
    <property name="meta.media.1.stream.type">audio</property>
    <property name="meta.media.1.codec.sample_fmt">fltp</property>
    <property name="meta.media.1.codec.sample_rate">48000</property>
    <property name="meta.media.1.codec.channels">2</property>
    <property name="meta.media.1.codec.layout">stereo</property>
    <property name="meta.media.1.codec.name">aac</property>
    <property name="meta.media.1.codec.long_name">AAC (Advanced Audio Coding)</property>
    <property name="meta.media.1.codec.bit_rate">192000</property>
    <property name="meta.attr.1.stream.handler_name.markup">SoundHandler</property>
    <property name="meta.attr.1.stream.vendor_id.markup">[0][0][0][0]</property>
    <property name="meta.attr.major_brand.markup">isom</property>
    <property name="meta.attr.minor_version.markup">512</property>
    <property name="meta.attr.compatible_brands.markup">isomiso2avc1mp41</property>
    <property name="meta.attr.encoder.markup">Lavf61.1.100</property>
    <property name="seekable">1</property>
    <property name="meta.media.sample_aspect_num">1</property>
    <property name="meta.media.sample_aspect_den">1</property>
    <property name="audio_index">1</property>
    <property name="video_index">0</property>
    <property name="creation_time">2025-07-03T21:54:21</property>
    <property name="vstream">0</property>
    <property name="meta.media.frame_rate_num">60</property>
    <property name="meta.media.frame_rate_den">1</property>
    <property name="meta.media.colorspace">709</property>
    <property name="meta.media.color_trc">1</property>
    <property name="meta.media.has_b_frames">2</property>
    <property name="meta.media.width">1280</property>
    <property name="meta.media.height">720</property>
    <property name="meta.media.aspect_ratio">1</property>
    <property name="meta.media.color_range">mpeg</property>
    <property name="astream">0</property>
    <property name="shotcut:skipConvert">1</property>
    <property name="xml">was here</property>
    <property name="shotcut:hash">b0d42146af3f0d5dd168746373f612b4</property>
  </chain>
  <chain id="chain10" out="00:00:10.960">
    <property name="length">00:00:11.000</property>
    <property name="eof">pause</property>
    <property name="resource">gravações/visualizarPedidosTroca.mp4</property>
    <property name="mlt_service">avformat-novalidate</property>
    <property name="meta.media.nb_streams">2</property>
    <property name="meta.media.0.stream.type">video</property>
    <property name="meta.media.0.stream.frame_rate">60</property>
    <property name="meta.media.0.stream.sample_aspect_ratio">0</property>
    <property name="meta.media.0.codec.width">1280</property>
    <property name="meta.media.0.codec.height">720</property>
    <property name="meta.media.0.codec.rotate">0</property>
    <property name="meta.media.0.codec.pix_fmt">yuv420p</property>
    <property name="meta.media.0.codec.sample_aspect_ratio">1</property>
    <property name="meta.media.0.codec.colorspace">709</property>
    <property name="meta.media.0.codec.color_trc">1</property>
    <property name="meta.media.0.codec.name">h264</property>
    <property name="meta.media.0.codec.long_name">H.264 / AVC / MPEG-4 AVC / MPEG-4 part 10</property>
    <property name="meta.media.0.codec.bit_rate">597348</property>
    <property name="meta.attr.0.stream.handler_name.markup">VideoHandler</property>
    <property name="meta.attr.0.stream.vendor_id.markup">[0][0][0][0]</property>
    <property name="meta.media.1.stream.type">audio</property>
    <property name="meta.media.1.codec.sample_fmt">fltp</property>
    <property name="meta.media.1.codec.sample_rate">48000</property>
    <property name="meta.media.1.codec.channels">2</property>
    <property name="meta.media.1.codec.layout">stereo</property>
    <property name="meta.media.1.codec.name">aac</property>
    <property name="meta.media.1.codec.long_name">AAC (Advanced Audio Coding)</property>
    <property name="meta.media.1.codec.bit_rate">192000</property>
    <property name="meta.attr.1.stream.handler_name.markup">SoundHandler</property>
    <property name="meta.attr.1.stream.vendor_id.markup">[0][0][0][0]</property>
    <property name="meta.attr.major_brand.markup">isom</property>
    <property name="meta.attr.minor_version.markup">512</property>
    <property name="meta.attr.compatible_brands.markup">isomiso2avc1mp41</property>
    <property name="meta.attr.encoder.markup">Lavf61.1.100</property>
    <property name="seekable">1</property>
    <property name="meta.media.sample_aspect_num">1</property>
    <property name="meta.media.sample_aspect_den">1</property>
    <property name="audio_index">1</property>
    <property name="video_index">0</property>
    <property name="creation_time">2025-07-04T00:02:03</property>
    <property name="vstream">0</property>
    <property name="meta.media.frame_rate_num">60</property>
    <property name="meta.media.frame_rate_den">1</property>
    <property name="meta.media.colorspace">709</property>
    <property name="meta.media.color_trc">1</property>
    <property name="meta.media.has_b_frames">2</property>
    <property name="meta.media.width">1280</property>
    <property name="meta.media.height">720</property>
    <property name="meta.media.aspect_ratio">1</property>
    <property name="meta.media.color_range">mpeg</property>
    <property name="astream">0</property>
    <property name="shotcut:skipConvert">1</property>
    <property name="xml">was here</property>
    <property name="shotcut:hash">6bd93222350217b5a516e575c75814f0</property>
  </chain>
  <chain id="chain11" out="00:00:16.240">
    <property name="length">00:00:16.280</property>
    <property name="eof">pause</property>
    <property name="resource">gravações/PesquisaQuadrinhos.mp4</property>
    <property name="mlt_service">avformat-novalidate</property>
    <property name="meta.media.nb_streams">2</property>
    <property name="meta.media.0.stream.type">video</property>
    <property name="meta.media.0.stream.frame_rate">60</property>
    <property name="meta.media.0.stream.sample_aspect_ratio">0</property>
    <property name="meta.media.0.codec.width">1280</property>
    <property name="meta.media.0.codec.height">720</property>
    <property name="meta.media.0.codec.rotate">0</property>
    <property name="meta.media.0.codec.pix_fmt">yuv420p</property>
    <property name="meta.media.0.codec.sample_aspect_ratio">1</property>
    <property name="meta.media.0.codec.colorspace">709</property>
    <property name="meta.media.0.codec.color_trc">1</property>
    <property name="meta.media.0.codec.name">h264</property>
    <property name="meta.media.0.codec.long_name">H.264 / AVC / MPEG-4 AVC / MPEG-4 part 10</property>
    <property name="meta.media.0.codec.bit_rate">635657</property>
    <property name="meta.attr.0.stream.handler_name.markup">VideoHandler</property>
    <property name="meta.attr.0.stream.vendor_id.markup">[0][0][0][0]</property>
    <property name="meta.media.1.stream.type">audio</property>
    <property name="meta.media.1.codec.sample_fmt">fltp</property>
    <property name="meta.media.1.codec.sample_rate">48000</property>
    <property name="meta.media.1.codec.channels">2</property>
    <property name="meta.media.1.codec.layout">stereo</property>
    <property name="meta.media.1.codec.name">aac</property>
    <property name="meta.media.1.codec.long_name">AAC (Advanced Audio Coding)</property>
    <property name="meta.media.1.codec.bit_rate">192000</property>
    <property name="meta.attr.1.stream.handler_name.markup">SoundHandler</property>
    <property name="meta.attr.1.stream.vendor_id.markup">[0][0][0][0]</property>
    <property name="meta.attr.major_brand.markup">isom</property>
    <property name="meta.attr.minor_version.markup">512</property>
    <property name="meta.attr.compatible_brands.markup">isomiso2avc1mp41</property>
    <property name="meta.attr.encoder.markup">Lavf61.1.100</property>
    <property name="seekable">1</property>
    <property name="meta.media.sample_aspect_num">1</property>
    <property name="meta.media.sample_aspect_den">1</property>
    <property name="audio_index">1</property>
    <property name="video_index">0</property>
    <property name="creation_time">2025-07-02T20:42:44</property>
    <property name="vstream">0</property>
    <property name="meta.media.frame_rate_num">60</property>
    <property name="meta.media.frame_rate_den">1</property>
    <property name="meta.media.colorspace">709</property>
    <property name="meta.media.color_trc">1</property>
    <property name="meta.media.has_b_frames">2</property>
    <property name="meta.media.width">1280</property>
    <property name="meta.media.height">720</property>
    <property name="meta.media.aspect_ratio">1</property>
    <property name="meta.media.color_range">mpeg</property>
    <property name="astream">0</property>
    <property name="shotcut:skipConvert">1</property>
    <property name="xml">was here</property>
    <property name="shotcut:hash">74d2fd157d84434dd9fe37ff5ccb1468</property>
  </chain>
  <chain id="chain12" out="00:00:49.880">
    <property name="length">00:00:49.920</property>
    <property name="eof">pause</property>
    <property name="resource">gravações/TesteCarrinho.mp4</property>
    <property name="mlt_service">avformat-novalidate</property>
    <property name="meta.media.nb_streams">2</property>
    <property name="meta.media.0.stream.type">video</property>
    <property name="meta.media.0.stream.frame_rate">60</property>
    <property name="meta.media.0.stream.sample_aspect_ratio">0</property>
    <property name="meta.media.0.codec.width">1280</property>
    <property name="meta.media.0.codec.height">720</property>
    <property name="meta.media.0.codec.rotate">0</property>
    <property name="meta.media.0.codec.pix_fmt">yuv420p</property>
    <property name="meta.media.0.codec.sample_aspect_ratio">1</property>
    <property name="meta.media.0.codec.colorspace">709</property>
    <property name="meta.media.0.codec.color_trc">1</property>
    <property name="meta.media.0.codec.name">h264</property>
    <property name="meta.media.0.codec.long_name">H.264 / AVC / MPEG-4 AVC / MPEG-4 part 10</property>
    <property name="meta.media.0.codec.bit_rate">459134</property>
    <property name="meta.attr.0.stream.handler_name.markup">VideoHandler</property>
    <property name="meta.attr.0.stream.vendor_id.markup">[0][0][0][0]</property>
    <property name="meta.media.1.stream.type">audio</property>
    <property name="meta.media.1.codec.sample_fmt">fltp</property>
    <property name="meta.media.1.codec.sample_rate">48000</property>
    <property name="meta.media.1.codec.channels">2</property>
    <property name="meta.media.1.codec.layout">stereo</property>
    <property name="meta.media.1.codec.name">aac</property>
    <property name="meta.media.1.codec.long_name">AAC (Advanced Audio Coding)</property>
    <property name="meta.media.1.codec.bit_rate">192000</property>
    <property name="meta.attr.1.stream.handler_name.markup">SoundHandler</property>
    <property name="meta.attr.1.stream.vendor_id.markup">[0][0][0][0]</property>
    <property name="meta.attr.major_brand.markup">isom</property>
    <property name="meta.attr.minor_version.markup">512</property>
    <property name="meta.attr.compatible_brands.markup">isomiso2avc1mp41</property>
    <property name="meta.attr.encoder.markup">Lavf61.1.100</property>
    <property name="seekable">1</property>
    <property name="meta.media.sample_aspect_num">1</property>
    <property name="meta.media.sample_aspect_den">1</property>
    <property name="audio_index">1</property>
    <property name="video_index">0</property>
    <property name="creation_time">2025-07-02T20:31:42</property>
    <property name="vstream">0</property>
    <property name="meta.media.frame_rate_num">60</property>
    <property name="meta.media.frame_rate_den">1</property>
    <property name="meta.media.colorspace">709</property>
    <property name="meta.media.color_trc">1</property>
    <property name="meta.media.has_b_frames">2</property>
    <property name="meta.media.width">1280</property>
    <property name="meta.media.height">720</property>
    <property name="meta.media.aspect_ratio">1</property>
    <property name="meta.media.color_range">mpeg</property>
    <property name="astream">0</property>
    <property name="shotcut:skipConvert">1</property>
    <property name="xml">was here</property>
    <property name="shotcut:hash">fe3778eb1a7cf4731b6ec66fae90f9ad</property>
  </chain>
  <chain id="chain13" out="00:00:56.280">
    <property name="length">00:00:56.320</property>
    <property name="eof">pause</property>
    <property name="resource">gravações/RealizarPedido.mp4</property>
    <property name="mlt_service">avformat-novalidate</property>
    <property name="meta.media.nb_streams">2</property>
    <property name="meta.media.0.stream.type">video</property>
    <property name="meta.media.0.stream.frame_rate">60</property>
    <property name="meta.media.0.stream.sample_aspect_ratio">0</property>
    <property name="meta.media.0.codec.width">1280</property>
    <property name="meta.media.0.codec.height">720</property>
    <property name="meta.media.0.codec.rotate">0</property>
    <property name="meta.media.0.codec.pix_fmt">yuv420p</property>
    <property name="meta.media.0.codec.sample_aspect_ratio">1</property>
    <property name="meta.media.0.codec.colorspace">709</property>
    <property name="meta.media.0.codec.color_trc">1</property>
    <property name="meta.media.0.codec.name">h264</property>
    <property name="meta.media.0.codec.long_name">H.264 / AVC / MPEG-4 AVC / MPEG-4 part 10</property>
    <property name="meta.media.0.codec.bit_rate">501820</property>
    <property name="meta.attr.0.stream.handler_name.markup">VideoHandler</property>
    <property name="meta.attr.0.stream.vendor_id.markup">[0][0][0][0]</property>
    <property name="meta.media.1.stream.type">audio</property>
    <property name="meta.media.1.codec.sample_fmt">fltp</property>
    <property name="meta.media.1.codec.sample_rate">48000</property>
    <property name="meta.media.1.codec.channels">2</property>
    <property name="meta.media.1.codec.layout">stereo</property>
    <property name="meta.media.1.codec.name">aac</property>
    <property name="meta.media.1.codec.long_name">AAC (Advanced Audio Coding)</property>
    <property name="meta.media.1.codec.bit_rate">192000</property>
    <property name="meta.attr.1.stream.handler_name.markup">SoundHandler</property>
    <property name="meta.attr.1.stream.vendor_id.markup">[0][0][0][0]</property>
    <property name="meta.attr.major_brand.markup">isom</property>
    <property name="meta.attr.minor_version.markup">512</property>
    <property name="meta.attr.compatible_brands.markup">isomiso2avc1mp41</property>
    <property name="meta.attr.encoder.markup">Lavf61.1.100</property>
    <property name="seekable">1</property>
    <property name="meta.media.sample_aspect_num">1</property>
    <property name="meta.media.sample_aspect_den">1</property>
    <property name="audio_index">1</property>
    <property name="video_index">0</property>
    <property name="creation_time">2025-07-02T20:47:46</property>
    <property name="vstream">0</property>
    <property name="meta.media.frame_rate_num">60</property>
    <property name="meta.media.frame_rate_den">1</property>
    <property name="meta.media.colorspace">709</property>
    <property name="meta.media.color_trc">1</property>
    <property name="meta.media.has_b_frames">2</property>
    <property name="meta.media.width">1280</property>
    <property name="meta.media.height">720</property>
    <property name="meta.media.aspect_ratio">1</property>
    <property name="meta.media.color_range">mpeg</property>
    <property name="astream">0</property>
    <property name="shotcut:skipConvert">1</property>
    <property name="xml">was here</property>
    <property name="shotcut:hash">8fe10af3923abefef86b5e2fcc14f2dd</property>
  </chain>
  <chain id="chain14" out="00:01:08.200">
    <property name="length">00:01:08.240</property>
    <property name="eof">pause</property>
    <property name="resource">cartoon-animation-music-funny-happy-cute-sweet-background-249671.mp3</property>
    <property name="mlt_service">avformat-novalidate</property>
    <property name="meta.media.nb_streams">1</property>
    <property name="meta.media.0.stream.type">audio</property>
    <property name="meta.media.0.codec.sample_fmt">fltp</property>
    <property name="meta.media.0.codec.sample_rate">44100</property>
    <property name="meta.media.0.codec.channels">2</property>
    <property name="meta.media.0.codec.layout">stereo</property>
    <property name="meta.media.0.codec.name">mp3float</property>
    <property name="meta.media.0.codec.long_name">MP3 (MPEG audio layer 3)</property>
    <property name="meta.media.0.codec.bit_rate">256000</property>
    <property name="seekable">1</property>
    <property name="audio_index">0</property>
    <property name="video_index">-1</property>
    <property name="creation_time">2025-07-04T01:53:40</property>
    <property name="astream">0</property>
    <property name="shotcut:skipConvert">1</property>
    <property name="xml">was here</property>
    <property name="shotcut:hash">abac9b01f7f4b34a69651f6459901f50</property>
  </chain>
  <playlist id="main_bin" title="Shotcut version 25.05.11">
    <property name="shotcut:projectAudioChannels">2</property>
    <property name="shotcut:projectFolder">1</property>
    <property name="shotcut:skipConvert">0</property>
    <property name="xml_retain">1</property>
    <entry producer="chain0" in="00:00:00.000" out="00:01:10.760"/>
    <entry producer="chain1" in="00:00:00.000" out="00:00:18.320"/>
    <entry producer="chain2" in="00:00:00.000" out="00:00:55.480"/>
    <entry producer="chain3" in="00:00:00.000" out="00:00:17.160"/>
    <entry producer="chain4" in="00:00:00.000" out="00:00:17.600"/>
    <entry producer="chain5" in="00:00:00.000" out="00:00:32.280"/>
    <entry producer="chain6" in="00:00:00.000" out="00:01:05.360"/>
    <entry producer="chain7" in="00:00:00.000" out="00:00:35.520"/>
    <entry producer="chain8" in="00:00:00.000" out="00:00:30.040"/>
    <entry producer="chain9" in="00:00:00.000" out="00:00:28.720"/>
    <entry producer="chain10" in="00:00:00.000" out="00:00:10.960"/>
    <entry producer="chain11" in="00:00:00.000" out="00:00:16.240"/>
    <entry producer="chain12" in="00:00:00.000" out="00:00:49.880"/>
    <entry producer="chain13" in="00:00:00.000" out="00:00:56.280"/>
    <entry producer="chain14" in="00:00:00.000" out="00:01:08.200"/>
  </playlist>
  <producer id="black" in="00:00:00.000" out="00:05:11.960">
    <property name="length">00:05:12.000</property>
    <property name="eof">pause</property>
    <property name="resource">0</property>
    <property name="aspect_ratio">1</property>
    <property name="mlt_service">color</property>
    <property name="mlt_image_format">rgba</property>
    <property name="set.test_audio">0</property>
  </producer>
  <playlist id="background">
    <entry producer="black" in="00:00:00.000" out="00:05:11.960"/>
  </playlist>
  <chain id="chain15" out="00:00:16.240">
    <property name="length">00:00:16.280</property>
    <property name="eof">pause</property>
    <property name="resource">gravações/PesquisaQuadrinhos.mp4</property>
    <property name="mlt_service">avformat-novalidate</property>
    <property name="meta.media.nb_streams">2</property>
    <property name="meta.media.0.stream.type">video</property>
    <property name="meta.media.0.stream.frame_rate">60</property>
    <property name="meta.media.0.stream.sample_aspect_ratio">0</property>
    <property name="meta.media.0.codec.width">1280</property>
    <property name="meta.media.0.codec.height">720</property>
    <property name="meta.media.0.codec.rotate">0</property>
    <property name="meta.media.0.codec.pix_fmt">yuv420p</property>
    <property name="meta.media.0.codec.sample_aspect_ratio">1</property>
    <property name="meta.media.0.codec.colorspace">709</property>
    <property name="meta.media.0.codec.color_trc">1</property>
    <property name="meta.media.0.codec.name">h264</property>
    <property name="meta.media.0.codec.long_name">H.264 / AVC / MPEG-4 AVC / MPEG-4 part 10</property>
    <property name="meta.media.0.codec.bit_rate">635657</property>
    <property name="meta.attr.0.stream.handler_name.markup">VideoHandler</property>
    <property name="meta.attr.0.stream.vendor_id.markup">[0][0][0][0]</property>
    <property name="meta.media.1.stream.type">audio</property>
    <property name="meta.media.1.codec.sample_fmt">fltp</property>
    <property name="meta.media.1.codec.sample_rate">48000</property>
    <property name="meta.media.1.codec.channels">2</property>
    <property name="meta.media.1.codec.layout">stereo</property>
    <property name="meta.media.1.codec.name">aac</property>
    <property name="meta.media.1.codec.long_name">AAC (Advanced Audio Coding)</property>
    <property name="meta.media.1.codec.bit_rate">192000</property>
    <property name="meta.attr.1.stream.handler_name.markup">SoundHandler</property>
    <property name="meta.attr.1.stream.vendor_id.markup">[0][0][0][0]</property>
    <property name="meta.attr.major_brand.markup">isom</property>
    <property name="meta.attr.minor_version.markup">512</property>
    <property name="meta.attr.compatible_brands.markup">isomiso2avc1mp41</property>
    <property name="meta.attr.encoder.markup">Lavf61.1.100</property>
    <property name="seekable">1</property>
    <property name="meta.media.sample_aspect_num">1</property>
    <property name="meta.media.sample_aspect_den">1</property>
    <property name="audio_index">1</property>
    <property name="video_index">0</property>
    <property name="creation_time">2025-07-02T20:42:44</property>
    <property name="vstream">0</property>
    <property name="meta.media.frame_rate_num">60</property>
    <property name="meta.media.frame_rate_den">1</property>
    <property name="meta.media.colorspace">709</property>
    <property name="meta.media.color_trc">1</property>
    <property name="meta.media.has_b_frames">2</property>
    <property name="meta.media.width">1280</property>
    <property name="meta.media.height">720</property>
    <property name="meta.media.aspect_ratio">1</property>
    <property name="meta.media.color_range">mpeg</property>
    <property name="astream">0</property>
    <property name="shotcut:skipConvert">1</property>
    <property name="xml">was here</property>
    <property name="shotcut:hash">74d2fd157d84434dd9fe37ff5ccb1468</property>
    <property name="meta.media.top_field_first">0</property>
    <property name="meta.media.progressive">1</property>
    <property name="shotcut:caption">PesquisaQuadrinhos.mp4</property>
  </chain>
  <chain id="chain16" out="00:00:32.280">
    <property name="length">00:00:32.320</property>
    <property name="eof">pause</property>
    <property name="resource">gravações/chatIATest.mp4</property>
    <property name="mlt_service">avformat-novalidate</property>
    <property name="meta.media.nb_streams">2</property>
    <property name="meta.media.0.stream.type">video</property>
    <property name="meta.media.0.stream.frame_rate">60</property>
    <property name="meta.media.0.stream.sample_aspect_ratio">0</property>
    <property name="meta.media.0.codec.width">1280</property>
    <property name="meta.media.0.codec.height">720</property>
    <property name="meta.media.0.codec.rotate">0</property>
    <property name="meta.media.0.codec.pix_fmt">yuv420p</property>
    <property name="meta.media.0.codec.sample_aspect_ratio">1</property>
    <property name="meta.media.0.codec.colorspace">709</property>
    <property name="meta.media.0.codec.color_trc">1</property>
    <property name="meta.media.0.codec.name">h264</property>
    <property name="meta.media.0.codec.long_name">H.264 / AVC / MPEG-4 AVC / MPEG-4 part 10</property>
    <property name="meta.media.0.codec.bit_rate">463134</property>
    <property name="meta.attr.0.stream.handler_name.markup">VideoHandler</property>
    <property name="meta.attr.0.stream.vendor_id.markup">[0][0][0][0]</property>
    <property name="meta.media.1.stream.type">audio</property>
    <property name="meta.media.1.codec.sample_fmt">fltp</property>
    <property name="meta.media.1.codec.sample_rate">48000</property>
    <property name="meta.media.1.codec.channels">2</property>
    <property name="meta.media.1.codec.layout">stereo</property>
    <property name="meta.media.1.codec.name">aac</property>
    <property name="meta.media.1.codec.long_name">AAC (Advanced Audio Coding)</property>
    <property name="meta.media.1.codec.bit_rate">192000</property>
    <property name="meta.attr.1.stream.handler_name.markup">SoundHandler</property>
    <property name="meta.attr.1.stream.vendor_id.markup">[0][0][0][0]</property>
    <property name="meta.attr.major_brand.markup">isom</property>
    <property name="meta.attr.minor_version.markup">512</property>
    <property name="meta.attr.compatible_brands.markup">isomiso2avc1mp41</property>
    <property name="meta.attr.encoder.markup">Lavf61.1.100</property>
    <property name="seekable">1</property>
    <property name="meta.media.sample_aspect_num">1</property>
    <property name="meta.media.sample_aspect_den">1</property>
    <property name="audio_index">1</property>
    <property name="video_index">0</property>
    <property name="creation_time">2025-07-03T22:03:55</property>
    <property name="vstream">0</property>
    <property name="meta.media.frame_rate_num">60</property>
    <property name="meta.media.frame_rate_den">1</property>
    <property name="meta.media.colorspace">709</property>
    <property name="meta.media.color_trc">1</property>
    <property name="meta.media.has_b_frames">2</property>
    <property name="meta.media.width">1280</property>
    <property name="meta.media.height">720</property>
    <property name="meta.media.aspect_ratio">1</property>
    <property name="meta.media.color_range">mpeg</property>
    <property name="astream">0</property>
    <property name="shotcut:skipConvert">1</property>
    <property name="xml">was here</property>
    <property name="shotcut:hash">17071ebf424033a487ff8eefb202bbc0</property>
    <property name="meta.media.top_field_first">0</property>
    <property name="meta.media.progressive">1</property>
    <property name="shotcut:caption">chatIATest.mp4</property>
  </chain>
  <chain id="chain17" out="00:00:32.280">
    <property name="length">00:00:32.320</property>
    <property name="eof">pause</property>
    <property name="resource">gravações/chatIATest.mp4</property>
    <property name="mlt_service">avformat-novalidate</property>
    <property name="meta.media.nb_streams">2</property>
    <property name="meta.media.0.stream.type">video</property>
    <property name="meta.media.0.stream.frame_rate">60</property>
    <property name="meta.media.0.stream.sample_aspect_ratio">0</property>
    <property name="meta.media.0.codec.width">1280</property>
    <property name="meta.media.0.codec.height">720</property>
    <property name="meta.media.0.codec.rotate">0</property>
    <property name="meta.media.0.codec.pix_fmt">yuv420p</property>
    <property name="meta.media.0.codec.sample_aspect_ratio">1</property>
    <property name="meta.media.0.codec.colorspace">709</property>
    <property name="meta.media.0.codec.color_trc">1</property>
    <property name="meta.media.0.codec.name">h264</property>
    <property name="meta.media.0.codec.long_name">H.264 / AVC / MPEG-4 AVC / MPEG-4 part 10</property>
    <property name="meta.media.0.codec.bit_rate">463134</property>
    <property name="meta.attr.0.stream.handler_name.markup">VideoHandler</property>
    <property name="meta.attr.0.stream.vendor_id.markup">[0][0][0][0]</property>
    <property name="meta.media.1.stream.type">audio</property>
    <property name="meta.media.1.codec.sample_fmt">fltp</property>
    <property name="meta.media.1.codec.sample_rate">48000</property>
    <property name="meta.media.1.codec.channels">2</property>
    <property name="meta.media.1.codec.layout">stereo</property>
    <property name="meta.media.1.codec.name">aac</property>
    <property name="meta.media.1.codec.long_name">AAC (Advanced Audio Coding)</property>
    <property name="meta.media.1.codec.bit_rate">192000</property>
    <property name="meta.attr.1.stream.handler_name.markup">SoundHandler</property>
    <property name="meta.attr.1.stream.vendor_id.markup">[0][0][0][0]</property>
    <property name="meta.attr.major_brand.markup">isom</property>
    <property name="meta.attr.minor_version.markup">512</property>
    <property name="meta.attr.compatible_brands.markup">isomiso2avc1mp41</property>
    <property name="meta.attr.encoder.markup">Lavf61.1.100</property>
    <property name="seekable">1</property>
    <property name="meta.media.sample_aspect_num">1</property>
    <property name="meta.media.sample_aspect_den">1</property>
    <property name="audio_index">1</property>
    <property name="video_index">0</property>
    <property name="creation_time">2025-07-03T22:03:55</property>
    <property name="vstream">0</property>
    <property name="meta.media.frame_rate_num">60</property>
    <property name="meta.media.frame_rate_den">1</property>
    <property name="meta.media.colorspace">709</property>
    <property name="meta.media.color_trc">1</property>
    <property name="meta.media.has_b_frames">2</property>
    <property name="meta.media.width">1280</property>
    <property name="meta.media.height">720</property>
    <property name="meta.media.aspect_ratio">1</property>
    <property name="meta.media.color_range">mpeg</property>
    <property name="astream">0</property>
    <property name="shotcut:skipConvert">1</property>
    <property name="xml">was here</property>
    <property name="shotcut:hash">17071ebf424033a487ff8eefb202bbc0</property>
    <property name="meta.media.top_field_first">0</property>
    <property name="meta.media.progressive">1</property>
    <property name="shotcut:caption">chatIATest.mp4</property>
  </chain>
  <chain id="chain18" out="00:00:32.280">
    <property name="length">00:00:32.320</property>
    <property name="eof">pause</property>
    <property name="resource">gravações/chatIATest.mp4</property>
    <property name="mlt_service">avformat-novalidate</property>
    <property name="meta.media.nb_streams">2</property>
    <property name="meta.media.0.stream.type">video</property>
    <property name="meta.media.0.stream.frame_rate">60</property>
    <property name="meta.media.0.stream.sample_aspect_ratio">0</property>
    <property name="meta.media.0.codec.width">1280</property>
    <property name="meta.media.0.codec.height">720</property>
    <property name="meta.media.0.codec.rotate">0</property>
    <property name="meta.media.0.codec.pix_fmt">yuv420p</property>
    <property name="meta.media.0.codec.sample_aspect_ratio">1</property>
    <property name="meta.media.0.codec.colorspace">709</property>
    <property name="meta.media.0.codec.color_trc">1</property>
    <property name="meta.media.0.codec.name">h264</property>
    <property name="meta.media.0.codec.long_name">H.264 / AVC / MPEG-4 AVC / MPEG-4 part 10</property>
    <property name="meta.media.0.codec.bit_rate">463134</property>
    <property name="meta.attr.0.stream.handler_name.markup">VideoHandler</property>
    <property name="meta.attr.0.stream.vendor_id.markup">[0][0][0][0]</property>
    <property name="meta.media.1.stream.type">audio</property>
    <property name="meta.media.1.codec.sample_fmt">fltp</property>
    <property name="meta.media.1.codec.sample_rate">48000</property>
    <property name="meta.media.1.codec.channels">2</property>
    <property name="meta.media.1.codec.layout">stereo</property>
    <property name="meta.media.1.codec.name">aac</property>
    <property name="meta.media.1.codec.long_name">AAC (Advanced Audio Coding)</property>
    <property name="meta.media.1.codec.bit_rate">192000</property>
    <property name="meta.attr.1.stream.handler_name.markup">SoundHandler</property>
    <property name="meta.attr.1.stream.vendor_id.markup">[0][0][0][0]</property>
    <property name="meta.attr.major_brand.markup">isom</property>
    <property name="meta.attr.minor_version.markup">512</property>
    <property name="meta.attr.compatible_brands.markup">isomiso2avc1mp41</property>
    <property name="meta.attr.encoder.markup">Lavf61.1.100</property>
    <property name="seekable">1</property>
    <property name="meta.media.sample_aspect_num">1</property>
    <property name="meta.media.sample_aspect_den">1</property>
    <property name="audio_index">1</property>
    <property name="video_index">0</property>
    <property name="creation_time">2025-07-03T22:03:55</property>
    <property name="vstream">0</property>
    <property name="meta.media.frame_rate_num">60</property>
    <property name="meta.media.frame_rate_den">1</property>
    <property name="meta.media.colorspace">709</property>
    <property name="meta.media.color_trc">1</property>
    <property name="meta.media.has_b_frames">2</property>
    <property name="meta.media.width">1280</property>
    <property name="meta.media.height">720</property>
    <property name="meta.media.aspect_ratio">1</property>
    <property name="meta.media.color_range">mpeg</property>
    <property name="astream">0</property>
    <property name="shotcut:skipConvert">1</property>
    <property name="xml">was here</property>
    <property name="shotcut:hash">17071ebf424033a487ff8eefb202bbc0</property>
    <property name="meta.media.top_field_first">0</property>
    <property name="meta.media.progressive">1</property>
    <property name="shotcut:caption">chatIATest.mp4</property>
  </chain>
  <chain id="chain19" out="00:00:49.880">
    <property name="length">00:00:49.920</property>
    <property name="eof">pause</property>
    <property name="resource">gravações/TesteCarrinho.mp4</property>
    <property name="mlt_service">avformat-novalidate</property>
    <property name="meta.media.nb_streams">2</property>
    <property name="meta.media.0.stream.type">video</property>
    <property name="meta.media.0.stream.frame_rate">60</property>
    <property name="meta.media.0.stream.sample_aspect_ratio">0</property>
    <property name="meta.media.0.codec.width">1280</property>
    <property name="meta.media.0.codec.height">720</property>
    <property name="meta.media.0.codec.rotate">0</property>
    <property name="meta.media.0.codec.pix_fmt">yuv420p</property>
    <property name="meta.media.0.codec.sample_aspect_ratio">1</property>
    <property name="meta.media.0.codec.colorspace">709</property>
    <property name="meta.media.0.codec.color_trc">1</property>
    <property name="meta.media.0.codec.name">h264</property>
    <property name="meta.media.0.codec.long_name">H.264 / AVC / MPEG-4 AVC / MPEG-4 part 10</property>
    <property name="meta.media.0.codec.bit_rate">459134</property>
    <property name="meta.attr.0.stream.handler_name.markup">VideoHandler</property>
    <property name="meta.attr.0.stream.vendor_id.markup">[0][0][0][0]</property>
    <property name="meta.media.1.stream.type">audio</property>
    <property name="meta.media.1.codec.sample_fmt">fltp</property>
    <property name="meta.media.1.codec.sample_rate">48000</property>
    <property name="meta.media.1.codec.channels">2</property>
    <property name="meta.media.1.codec.layout">stereo</property>
    <property name="meta.media.1.codec.name">aac</property>
    <property name="meta.media.1.codec.long_name">AAC (Advanced Audio Coding)</property>
    <property name="meta.media.1.codec.bit_rate">192000</property>
    <property name="meta.attr.1.stream.handler_name.markup">SoundHandler</property>
    <property name="meta.attr.1.stream.vendor_id.markup">[0][0][0][0]</property>
    <property name="meta.attr.major_brand.markup">isom</property>
    <property name="meta.attr.minor_version.markup">512</property>
    <property name="meta.attr.compatible_brands.markup">isomiso2avc1mp41</property>
    <property name="meta.attr.encoder.markup">Lavf61.1.100</property>
    <property name="seekable">1</property>
    <property name="meta.media.sample_aspect_num">1</property>
    <property name="meta.media.sample_aspect_den">1</property>
    <property name="audio_index">1</property>
    <property name="video_index">0</property>
    <property name="creation_time">2025-07-02T20:31:42</property>
    <property name="vstream">0</property>
    <property name="meta.media.frame_rate_num">60</property>
    <property name="meta.media.frame_rate_den">1</property>
    <property name="meta.media.colorspace">709</property>
    <property name="meta.media.color_trc">1</property>
    <property name="meta.media.has_b_frames">2</property>
    <property name="meta.media.width">1280</property>
    <property name="meta.media.height">720</property>
    <property name="meta.media.aspect_ratio">1</property>
    <property name="meta.media.color_range">mpeg</property>
    <property name="astream">0</property>
    <property name="shotcut:skipConvert">1</property>
    <property name="xml">was here</property>
    <property name="shotcut:hash">fe3778eb1a7cf4731b6ec66fae90f9ad</property>
    <property name="meta.media.top_field_first">0</property>
    <property name="meta.media.progressive">1</property>
    <property name="shotcut:caption">TesteCarrinho.mp4</property>
  </chain>
  <chain id="chain20" out="00:00:56.280">
    <property name="length">00:00:56.320</property>
    <property name="eof">pause</property>
    <property name="resource">gravações/RealizarPedido.mp4</property>
    <property name="mlt_service">avformat-novalidate</property>
    <property name="meta.media.nb_streams">2</property>
    <property name="meta.media.0.stream.type">video</property>
    <property name="meta.media.0.stream.frame_rate">60</property>
    <property name="meta.media.0.stream.sample_aspect_ratio">0</property>
    <property name="meta.media.0.codec.width">1280</property>
    <property name="meta.media.0.codec.height">720</property>
    <property name="meta.media.0.codec.rotate">0</property>
    <property name="meta.media.0.codec.pix_fmt">yuv420p</property>
    <property name="meta.media.0.codec.sample_aspect_ratio">1</property>
    <property name="meta.media.0.codec.colorspace">709</property>
    <property name="meta.media.0.codec.color_trc">1</property>
    <property name="meta.media.0.codec.name">h264</property>
    <property name="meta.media.0.codec.long_name">H.264 / AVC / MPEG-4 AVC / MPEG-4 part 10</property>
    <property name="meta.media.0.codec.bit_rate">501820</property>
    <property name="meta.attr.0.stream.handler_name.markup">VideoHandler</property>
    <property name="meta.attr.0.stream.vendor_id.markup">[0][0][0][0]</property>
    <property name="meta.media.1.stream.type">audio</property>
    <property name="meta.media.1.codec.sample_fmt">fltp</property>
    <property name="meta.media.1.codec.sample_rate">48000</property>
    <property name="meta.media.1.codec.channels">2</property>
    <property name="meta.media.1.codec.layout">stereo</property>
    <property name="meta.media.1.codec.name">aac</property>
    <property name="meta.media.1.codec.long_name">AAC (Advanced Audio Coding)</property>
    <property name="meta.media.1.codec.bit_rate">192000</property>
    <property name="meta.attr.1.stream.handler_name.markup">SoundHandler</property>
    <property name="meta.attr.1.stream.vendor_id.markup">[0][0][0][0]</property>
    <property name="meta.attr.major_brand.markup">isom</property>
    <property name="meta.attr.minor_version.markup">512</property>
    <property name="meta.attr.compatible_brands.markup">isomiso2avc1mp41</property>
    <property name="meta.attr.encoder.markup">Lavf61.1.100</property>
    <property name="seekable">1</property>
    <property name="meta.media.sample_aspect_num">1</property>
    <property name="meta.media.sample_aspect_den">1</property>
    <property name="audio_index">1</property>
    <property name="video_index">0</property>
    <property name="creation_time">2025-07-02T20:47:46</property>
    <property name="vstream">0</property>
    <property name="meta.media.frame_rate_num">60</property>
    <property name="meta.media.frame_rate_den">1</property>
    <property name="meta.media.colorspace">709</property>
    <property name="meta.media.color_trc">1</property>
    <property name="meta.media.has_b_frames">2</property>
    <property name="meta.media.width">1280</property>
    <property name="meta.media.height">720</property>
    <property name="meta.media.aspect_ratio">1</property>
    <property name="meta.media.color_range">mpeg</property>
    <property name="astream">0</property>
    <property name="shotcut:skipConvert">1</property>
    <property name="xml">was here</property>
    <property name="shotcut:hash">8fe10af3923abefef86b5e2fcc14f2dd</property>
    <property name="meta.media.top_field_first">0</property>
    <property name="meta.media.progressive">1</property>
    <property name="shotcut:caption">RealizarPedido.mp4</property>
  </chain>
  <chain id="chain21" out="00:01:05.360">
    <property name="length">00:01:05.400</property>
    <property name="eof">pause</property>
    <property name="resource">gravações/cadastrarCliente.mp4</property>
    <property name="mlt_service">avformat-novalidate</property>
    <property name="meta.media.nb_streams">2</property>
    <property name="meta.media.0.stream.type">video</property>
    <property name="meta.media.0.stream.frame_rate">60</property>
    <property name="meta.media.0.stream.sample_aspect_ratio">0</property>
    <property name="meta.media.0.codec.width">1280</property>
    <property name="meta.media.0.codec.height">720</property>
    <property name="meta.media.0.codec.rotate">0</property>
    <property name="meta.media.0.codec.pix_fmt">yuv420p</property>
    <property name="meta.media.0.codec.sample_aspect_ratio">1</property>
    <property name="meta.media.0.codec.colorspace">709</property>
    <property name="meta.media.0.codec.color_trc">1</property>
    <property name="meta.media.0.codec.name">h264</property>
    <property name="meta.media.0.codec.long_name">H.264 / AVC / MPEG-4 AVC / MPEG-4 part 10</property>
    <property name="meta.media.0.codec.bit_rate">334280</property>
    <property name="meta.attr.0.stream.handler_name.markup">VideoHandler</property>
    <property name="meta.attr.0.stream.vendor_id.markup">[0][0][0][0]</property>
    <property name="meta.media.1.stream.type">audio</property>
    <property name="meta.media.1.codec.sample_fmt">fltp</property>
    <property name="meta.media.1.codec.sample_rate">48000</property>
    <property name="meta.media.1.codec.channels">2</property>
    <property name="meta.media.1.codec.layout">stereo</property>
    <property name="meta.media.1.codec.name">aac</property>
    <property name="meta.media.1.codec.long_name">AAC (Advanced Audio Coding)</property>
    <property name="meta.media.1.codec.bit_rate">192000</property>
    <property name="meta.attr.1.stream.handler_name.markup">SoundHandler</property>
    <property name="meta.attr.1.stream.vendor_id.markup">[0][0][0][0]</property>
    <property name="meta.attr.major_brand.markup">isom</property>
    <property name="meta.attr.minor_version.markup">512</property>
    <property name="meta.attr.compatible_brands.markup">isomiso2avc1mp41</property>
    <property name="meta.attr.encoder.markup">Lavf61.1.100</property>
    <property name="seekable">1</property>
    <property name="meta.media.sample_aspect_num">1</property>
    <property name="meta.media.sample_aspect_den">1</property>
    <property name="audio_index">1</property>
    <property name="video_index">0</property>
    <property name="creation_time">2025-07-03T21:53:37</property>
    <property name="vstream">0</property>
    <property name="meta.media.frame_rate_num">60</property>
    <property name="meta.media.frame_rate_den">1</property>
    <property name="meta.media.colorspace">709</property>
    <property name="meta.media.color_trc">1</property>
    <property name="meta.media.has_b_frames">2</property>
    <property name="meta.media.width">1280</property>
    <property name="meta.media.height">720</property>
    <property name="meta.media.aspect_ratio">1</property>
    <property name="meta.media.color_range">mpeg</property>
    <property name="astream">0</property>
    <property name="shotcut:skipConvert">1</property>
    <property name="xml">was here</property>
    <property name="shotcut:hash">b99c0d0c3734f7adad4f2889925ddf7d</property>
    <property name="meta.media.top_field_first">0</property>
    <property name="meta.media.progressive">1</property>
    <property name="shotcut:caption">cadastrarCliente.mp4</property>
  </chain>
  <chain id="chain22" out="00:00:28.720">
    <property name="length">00:00:28.760</property>
    <property name="eof">pause</property>
    <property name="resource">gravações/visualizarClientes.mp4</property>
    <property name="mlt_service">avformat-novalidate</property>
    <property name="meta.media.nb_streams">2</property>
    <property name="meta.media.0.stream.type">video</property>
    <property name="meta.media.0.stream.frame_rate">60</property>
    <property name="meta.media.0.stream.sample_aspect_ratio">0</property>
    <property name="meta.media.0.codec.width">1280</property>
    <property name="meta.media.0.codec.height">720</property>
    <property name="meta.media.0.codec.rotate">0</property>
    <property name="meta.media.0.codec.pix_fmt">yuv420p</property>
    <property name="meta.media.0.codec.sample_aspect_ratio">1</property>
    <property name="meta.media.0.codec.colorspace">709</property>
    <property name="meta.media.0.codec.color_trc">1</property>
    <property name="meta.media.0.codec.name">h264</property>
    <property name="meta.media.0.codec.long_name">H.264 / AVC / MPEG-4 AVC / MPEG-4 part 10</property>
    <property name="meta.media.0.codec.bit_rate">379673</property>
    <property name="meta.attr.0.stream.handler_name.markup">VideoHandler</property>
    <property name="meta.attr.0.stream.vendor_id.markup">[0][0][0][0]</property>
    <property name="meta.media.1.stream.type">audio</property>
    <property name="meta.media.1.codec.sample_fmt">fltp</property>
    <property name="meta.media.1.codec.sample_rate">48000</property>
    <property name="meta.media.1.codec.channels">2</property>
    <property name="meta.media.1.codec.layout">stereo</property>
    <property name="meta.media.1.codec.name">aac</property>
    <property name="meta.media.1.codec.long_name">AAC (Advanced Audio Coding)</property>
    <property name="meta.media.1.codec.bit_rate">192000</property>
    <property name="meta.attr.1.stream.handler_name.markup">SoundHandler</property>
    <property name="meta.attr.1.stream.vendor_id.markup">[0][0][0][0]</property>
    <property name="meta.attr.major_brand.markup">isom</property>
    <property name="meta.attr.minor_version.markup">512</property>
    <property name="meta.attr.compatible_brands.markup">isomiso2avc1mp41</property>
    <property name="meta.attr.encoder.markup">Lavf61.1.100</property>
    <property name="seekable">1</property>
    <property name="meta.media.sample_aspect_num">1</property>
    <property name="meta.media.sample_aspect_den">1</property>
    <property name="audio_index">1</property>
    <property name="video_index">0</property>
    <property name="creation_time">2025-07-03T21:54:21</property>
    <property name="vstream">0</property>
    <property name="meta.media.frame_rate_num">60</property>
    <property name="meta.media.frame_rate_den">1</property>
    <property name="meta.media.colorspace">709</property>
    <property name="meta.media.color_trc">1</property>
    <property name="meta.media.has_b_frames">2</property>
    <property name="meta.media.width">1280</property>
    <property name="meta.media.height">720</property>
    <property name="meta.media.aspect_ratio">1</property>
    <property name="meta.media.color_range">mpeg</property>
    <property name="astream">0</property>
    <property name="shotcut:skipConvert">1</property>
    <property name="xml">was here</property>
    <property name="shotcut:hash">b0d42146af3f0d5dd168746373f612b4</property>
    <property name="meta.media.top_field_first">0</property>
    <property name="meta.media.progressive">1</property>
    <property name="shotcut:caption">visualizarClientes.mp4</property>
  </chain>
  <chain id="chain23" out="00:00:35.520">
    <property name="length">00:00:35.560</property>
    <property name="eof">pause</property>
    <property name="resource">gravações/cadastroEndereco.mp4</property>
    <property name="mlt_service">avformat-novalidate</property>
    <property name="meta.media.nb_streams">2</property>
    <property name="meta.media.0.stream.type">video</property>
    <property name="meta.media.0.stream.frame_rate">60</property>
    <property name="meta.media.0.stream.sample_aspect_ratio">0</property>
    <property name="meta.media.0.codec.width">1280</property>
    <property name="meta.media.0.codec.height">720</property>
    <property name="meta.media.0.codec.rotate">0</property>
    <property name="meta.media.0.codec.pix_fmt">yuv420p</property>
    <property name="meta.media.0.codec.sample_aspect_ratio">1</property>
    <property name="meta.media.0.codec.colorspace">709</property>
    <property name="meta.media.0.codec.color_trc">1</property>
    <property name="meta.media.0.codec.name">h264</property>
    <property name="meta.media.0.codec.long_name">H.264 / AVC / MPEG-4 AVC / MPEG-4 part 10</property>
    <property name="meta.media.0.codec.bit_rate">363909</property>
    <property name="meta.attr.0.stream.handler_name.markup">VideoHandler</property>
    <property name="meta.attr.0.stream.vendor_id.markup">[0][0][0][0]</property>
    <property name="meta.media.1.stream.type">audio</property>
    <property name="meta.media.1.codec.sample_fmt">fltp</property>
    <property name="meta.media.1.codec.sample_rate">48000</property>
    <property name="meta.media.1.codec.channels">2</property>
    <property name="meta.media.1.codec.layout">stereo</property>
    <property name="meta.media.1.codec.name">aac</property>
    <property name="meta.media.1.codec.long_name">AAC (Advanced Audio Coding)</property>
    <property name="meta.media.1.codec.bit_rate">192000</property>
    <property name="meta.attr.1.stream.handler_name.markup">SoundHandler</property>
    <property name="meta.attr.1.stream.vendor_id.markup">[0][0][0][0]</property>
    <property name="meta.attr.major_brand.markup">isom</property>
    <property name="meta.attr.minor_version.markup">512</property>
    <property name="meta.attr.compatible_brands.markup">isomiso2avc1mp41</property>
    <property name="meta.attr.encoder.markup">Lavf61.1.100</property>
    <property name="seekable">1</property>
    <property name="meta.media.sample_aspect_num">1</property>
    <property name="meta.media.sample_aspect_den">1</property>
    <property name="audio_index">1</property>
    <property name="video_index">0</property>
    <property name="creation_time">2025-07-03T21:55:22</property>
    <property name="vstream">0</property>
    <property name="meta.media.frame_rate_num">60</property>
    <property name="meta.media.frame_rate_den">1</property>
    <property name="meta.media.colorspace">709</property>
    <property name="meta.media.color_trc">1</property>
    <property name="meta.media.has_b_frames">2</property>
    <property name="meta.media.width">1280</property>
    <property name="meta.media.height">720</property>
    <property name="meta.media.aspect_ratio">1</property>
    <property name="meta.media.color_range">mpeg</property>
    <property name="astream">0</property>
    <property name="shotcut:skipConvert">1</property>
    <property name="xml">was here</property>
    <property name="shotcut:hash">ddff9e14197f2b65cfa682e8ba6920c3</property>
    <property name="meta.media.top_field_first">0</property>
    <property name="meta.media.progressive">1</property>
    <property name="shotcut:caption">cadastroEndereco.mp4</property>
  </chain>
  <chain id="chain24" out="00:00:30.040">
    <property name="length">00:00:30.080</property>
    <property name="eof">pause</property>
    <property name="resource">gravações/cadastroCartao.mp4</property>
    <property name="mlt_service">avformat-novalidate</property>
    <property name="meta.media.nb_streams">2</property>
    <property name="meta.media.0.stream.type">video</property>
    <property name="meta.media.0.stream.frame_rate">60</property>
    <property name="meta.media.0.stream.sample_aspect_ratio">0</property>
    <property name="meta.media.0.codec.width">1280</property>
    <property name="meta.media.0.codec.height">720</property>
    <property name="meta.media.0.codec.rotate">0</property>
    <property name="meta.media.0.codec.pix_fmt">yuv420p</property>
    <property name="meta.media.0.codec.sample_aspect_ratio">1</property>
    <property name="meta.media.0.codec.colorspace">709</property>
    <property name="meta.media.0.codec.color_trc">1</property>
    <property name="meta.media.0.codec.name">h264</property>
    <property name="meta.media.0.codec.long_name">H.264 / AVC / MPEG-4 AVC / MPEG-4 part 10</property>
    <property name="meta.media.0.codec.bit_rate">376949</property>
    <property name="meta.attr.0.stream.handler_name.markup">VideoHandler</property>
    <property name="meta.attr.0.stream.vendor_id.markup">[0][0][0][0]</property>
    <property name="meta.media.1.stream.type">audio</property>
    <property name="meta.media.1.codec.sample_fmt">fltp</property>
    <property name="meta.media.1.codec.sample_rate">48000</property>
    <property name="meta.media.1.codec.channels">2</property>
    <property name="meta.media.1.codec.layout">stereo</property>
    <property name="meta.media.1.codec.name">aac</property>
    <property name="meta.media.1.codec.long_name">AAC (Advanced Audio Coding)</property>
    <property name="meta.media.1.codec.bit_rate">192000</property>
    <property name="meta.attr.1.stream.handler_name.markup">SoundHandler</property>
    <property name="meta.attr.1.stream.vendor_id.markup">[0][0][0][0]</property>
    <property name="meta.attr.major_brand.markup">isom</property>
    <property name="meta.attr.minor_version.markup">512</property>
    <property name="meta.attr.compatible_brands.markup">isomiso2avc1mp41</property>
    <property name="meta.attr.encoder.markup">Lavf61.1.100</property>
    <property name="seekable">1</property>
    <property name="meta.media.sample_aspect_num">1</property>
    <property name="meta.media.sample_aspect_den">1</property>
    <property name="audio_index">1</property>
    <property name="video_index">0</property>
    <property name="creation_time">2025-07-03T21:56:14</property>
    <property name="vstream">0</property>
    <property name="meta.media.frame_rate_num">60</property>
    <property name="meta.media.frame_rate_den">1</property>
    <property name="meta.media.colorspace">709</property>
    <property name="meta.media.color_trc">1</property>
    <property name="meta.media.has_b_frames">2</property>
    <property name="meta.media.width">1280</property>
    <property name="meta.media.height">720</property>
    <property name="meta.media.aspect_ratio">1</property>
    <property name="meta.media.color_range">mpeg</property>
    <property name="astream">0</property>
    <property name="shotcut:skipConvert">1</property>
    <property name="xml">was here</property>
    <property name="shotcut:hash">0b4de9783cf2e18e76a524e2325489a3</property>
    <property name="meta.media.top_field_first">0</property>
    <property name="meta.media.progressive">1</property>
    <property name="shotcut:caption">cadastroCartao.mp4</property>
  </chain>
  <chain id="chain25" out="00:00:55.480">
    <property name="length">00:00:55.520</property>
    <property name="eof">pause</property>
    <property name="resource">gravações/pedidoTroca.mp4</property>
    <property name="mlt_service">avformat-novalidate</property>
    <property name="meta.media.nb_streams">2</property>
    <property name="meta.media.0.stream.type">video</property>
    <property name="meta.media.0.stream.frame_rate">60</property>
    <property name="meta.media.0.stream.sample_aspect_ratio">0</property>
    <property name="meta.media.0.codec.width">1280</property>
    <property name="meta.media.0.codec.height">720</property>
    <property name="meta.media.0.codec.rotate">0</property>
    <property name="meta.media.0.codec.pix_fmt">yuv420p</property>
    <property name="meta.media.0.codec.sample_aspect_ratio">1</property>
    <property name="meta.media.0.codec.colorspace">709</property>
    <property name="meta.media.0.codec.color_trc">1</property>
    <property name="meta.media.0.codec.name">h264</property>
    <property name="meta.media.0.codec.long_name">H.264 / AVC / MPEG-4 AVC / MPEG-4 part 10</property>
    <property name="meta.media.0.codec.bit_rate">492059</property>
    <property name="meta.attr.0.stream.handler_name.markup">VideoHandler</property>
    <property name="meta.attr.0.stream.vendor_id.markup">[0][0][0][0]</property>
    <property name="meta.media.1.stream.type">audio</property>
    <property name="meta.media.1.codec.sample_fmt">fltp</property>
    <property name="meta.media.1.codec.sample_rate">48000</property>
    <property name="meta.media.1.codec.channels">2</property>
    <property name="meta.media.1.codec.layout">stereo</property>
    <property name="meta.media.1.codec.name">aac</property>
    <property name="meta.media.1.codec.long_name">AAC (Advanced Audio Coding)</property>
    <property name="meta.media.1.codec.bit_rate">192000</property>
    <property name="meta.attr.1.stream.handler_name.markup">SoundHandler</property>
    <property name="meta.attr.1.stream.vendor_id.markup">[0][0][0][0]</property>
    <property name="meta.attr.major_brand.markup">isom</property>
    <property name="meta.attr.minor_version.markup">512</property>
    <property name="meta.attr.compatible_brands.markup">isomiso2avc1mp41</property>
    <property name="meta.attr.encoder.markup">Lavf61.1.100</property>
    <property name="seekable">1</property>
    <property name="meta.media.sample_aspect_num">1</property>
    <property name="meta.media.sample_aspect_den">1</property>
    <property name="audio_index">1</property>
    <property name="video_index">0</property>
    <property name="creation_time">2025-07-03T23:53:55</property>
    <property name="vstream">0</property>
    <property name="meta.media.frame_rate_num">60</property>
    <property name="meta.media.frame_rate_den">1</property>
    <property name="meta.media.colorspace">709</property>
    <property name="meta.media.color_trc">1</property>
    <property name="meta.media.has_b_frames">2</property>
    <property name="meta.media.width">1280</property>
    <property name="meta.media.height">720</property>
    <property name="meta.media.aspect_ratio">1</property>
    <property name="meta.media.color_range">mpeg</property>
    <property name="astream">0</property>
    <property name="shotcut:skipConvert">1</property>
    <property name="xml">was here</property>
    <property name="shotcut:hash">f58e17e510f9dc39ddd2204732063c3e</property>
    <property name="meta.media.top_field_first">0</property>
    <property name="meta.media.progressive">1</property>
    <property name="shotcut:caption">pedidoTroca.mp4</property>
  </chain>
  <chain id="chain26" out="00:00:18.320">
    <property name="length">00:00:18.360</property>
    <property name="eof">pause</property>
    <property name="resource">gravações/pedidoDevolucao.mp4</property>
    <property name="mlt_service">avformat-novalidate</property>
    <property name="meta.media.nb_streams">2</property>
    <property name="meta.media.0.stream.type">video</property>
    <property name="meta.media.0.stream.frame_rate">60</property>
    <property name="meta.media.0.stream.sample_aspect_ratio">0</property>
    <property name="meta.media.0.codec.width">1280</property>
    <property name="meta.media.0.codec.height">720</property>
    <property name="meta.media.0.codec.rotate">0</property>
    <property name="meta.media.0.codec.pix_fmt">yuv420p</property>
    <property name="meta.media.0.codec.sample_aspect_ratio">1</property>
    <property name="meta.media.0.codec.colorspace">709</property>
    <property name="meta.media.0.codec.color_trc">1</property>
    <property name="meta.media.0.codec.name">h264</property>
    <property name="meta.media.0.codec.long_name">H.264 / AVC / MPEG-4 AVC / MPEG-4 part 10</property>
    <property name="meta.media.0.codec.bit_rate">474538</property>
    <property name="meta.attr.0.stream.handler_name.markup">VideoHandler</property>
    <property name="meta.attr.0.stream.vendor_id.markup">[0][0][0][0]</property>
    <property name="meta.media.1.stream.type">audio</property>
    <property name="meta.media.1.codec.sample_fmt">fltp</property>
    <property name="meta.media.1.codec.sample_rate">48000</property>
    <property name="meta.media.1.codec.channels">2</property>
    <property name="meta.media.1.codec.layout">stereo</property>
    <property name="meta.media.1.codec.name">aac</property>
    <property name="meta.media.1.codec.long_name">AAC (Advanced Audio Coding)</property>
    <property name="meta.media.1.codec.bit_rate">192000</property>
    <property name="meta.attr.1.stream.handler_name.markup">SoundHandler</property>
    <property name="meta.attr.1.stream.vendor_id.markup">[0][0][0][0]</property>
    <property name="meta.attr.major_brand.markup">isom</property>
    <property name="meta.attr.minor_version.markup">512</property>
    <property name="meta.attr.compatible_brands.markup">isomiso2avc1mp41</property>
    <property name="meta.attr.encoder.markup">Lavf61.1.100</property>
    <property name="seekable">1</property>
    <property name="meta.media.sample_aspect_num">1</property>
    <property name="meta.media.sample_aspect_den">1</property>
    <property name="audio_index">1</property>
    <property name="video_index">0</property>
    <property name="creation_time">2025-07-04T01:44:14</property>
    <property name="vstream">0</property>
    <property name="meta.media.frame_rate_num">60</property>
    <property name="meta.media.frame_rate_den">1</property>
    <property name="meta.media.colorspace">709</property>
    <property name="meta.media.color_trc">1</property>
    <property name="meta.media.has_b_frames">2</property>
    <property name="meta.media.width">1280</property>
    <property name="meta.media.height">720</property>
    <property name="meta.media.aspect_ratio">1</property>
    <property name="meta.media.color_range">mpeg</property>
    <property name="astream">0</property>
    <property name="shotcut:skipConvert">1</property>
    <property name="xml">was here</property>
    <property name="shotcut:hash">a7f87276a894420a23ea725c6f464f54</property>
    <property name="meta.media.top_field_first">0</property>
    <property name="meta.media.progressive">1</property>
    <property name="shotcut:caption">pedidoDevolucao.mp4</property>
  </chain>
  <chain id="chain27" out="00:01:10.760">
    <property name="length">00:01:10.800</property>
    <property name="eof">pause</property>
    <property name="resource">gravações/pedidoTrocaDevolucao.mp4</property>
    <property name="mlt_service">avformat-novalidate</property>
    <property name="meta.media.nb_streams">2</property>
    <property name="meta.media.0.stream.type">video</property>
    <property name="meta.media.0.stream.frame_rate">60</property>
    <property name="meta.media.0.stream.sample_aspect_ratio">0</property>
    <property name="meta.media.0.codec.width">1280</property>
    <property name="meta.media.0.codec.height">720</property>
    <property name="meta.media.0.codec.rotate">0</property>
    <property name="meta.media.0.codec.pix_fmt">yuv420p</property>
    <property name="meta.media.0.codec.sample_aspect_ratio">1</property>
    <property name="meta.media.0.codec.colorspace">709</property>
    <property name="meta.media.0.codec.color_trc">1</property>
    <property name="meta.media.0.codec.name">h264</property>
    <property name="meta.media.0.codec.long_name">H.264 / AVC / MPEG-4 AVC / MPEG-4 part 10</property>
    <property name="meta.media.0.codec.bit_rate">485237</property>
    <property name="meta.attr.0.stream.handler_name.markup">VideoHandler</property>
    <property name="meta.attr.0.stream.vendor_id.markup">[0][0][0][0]</property>
    <property name="meta.media.1.stream.type">audio</property>
    <property name="meta.media.1.codec.sample_fmt">fltp</property>
    <property name="meta.media.1.codec.sample_rate">48000</property>
    <property name="meta.media.1.codec.channels">2</property>
    <property name="meta.media.1.codec.layout">stereo</property>
    <property name="meta.media.1.codec.name">aac</property>
    <property name="meta.media.1.codec.long_name">AAC (Advanced Audio Coding)</property>
    <property name="meta.media.1.codec.bit_rate">192000</property>
    <property name="meta.attr.1.stream.handler_name.markup">SoundHandler</property>
    <property name="meta.attr.1.stream.vendor_id.markup">[0][0][0][0]</property>
    <property name="meta.attr.major_brand.markup">isom</property>
    <property name="meta.attr.minor_version.markup">512</property>
    <property name="meta.attr.compatible_brands.markup">isomiso2avc1mp41</property>
    <property name="meta.attr.encoder.markup">Lavf61.1.100</property>
    <property name="seekable">1</property>
    <property name="meta.media.sample_aspect_num">1</property>
    <property name="meta.media.sample_aspect_den">1</property>
    <property name="audio_index">1</property>
    <property name="video_index">0</property>
    <property name="creation_time">2025-07-03T23:57:45</property>
    <property name="vstream">0</property>
    <property name="meta.media.frame_rate_num">60</property>
    <property name="meta.media.frame_rate_den">1</property>
    <property name="meta.media.colorspace">709</property>
    <property name="meta.media.color_trc">1</property>
    <property name="meta.media.has_b_frames">2</property>
    <property name="meta.media.width">1280</property>
    <property name="meta.media.height">720</property>
    <property name="meta.media.aspect_ratio">1</property>
    <property name="meta.media.color_range">mpeg</property>
    <property name="astream">0</property>
    <property name="shotcut:skipConvert">1</property>
    <property name="xml">was here</property>
    <property name="shotcut:hash">5abd9bf68125b94c9833ce51bae79a92</property>
    <property name="meta.media.top_field_first">0</property>
    <property name="meta.media.progressive">1</property>
    <property name="shotcut:caption">pedidoTrocaDevolucao.mp4</property>
  </chain>
  <chain id="chain28" out="00:00:10.960">
    <property name="length">00:00:11.000</property>
    <property name="eof">pause</property>
    <property name="resource">gravações/visualizarPedidosTroca.mp4</property>
    <property name="mlt_service">avformat-novalidate</property>
    <property name="meta.media.nb_streams">2</property>
    <property name="meta.media.0.stream.type">video</property>
    <property name="meta.media.0.stream.frame_rate">60</property>
    <property name="meta.media.0.stream.sample_aspect_ratio">0</property>
    <property name="meta.media.0.codec.width">1280</property>
    <property name="meta.media.0.codec.height">720</property>
    <property name="meta.media.0.codec.rotate">0</property>
    <property name="meta.media.0.codec.pix_fmt">yuv420p</property>
    <property name="meta.media.0.codec.sample_aspect_ratio">1</property>
    <property name="meta.media.0.codec.colorspace">709</property>
    <property name="meta.media.0.codec.color_trc">1</property>
    <property name="meta.media.0.codec.name">h264</property>
    <property name="meta.media.0.codec.long_name">H.264 / AVC / MPEG-4 AVC / MPEG-4 part 10</property>
    <property name="meta.media.0.codec.bit_rate">597348</property>
    <property name="meta.attr.0.stream.handler_name.markup">VideoHandler</property>
    <property name="meta.attr.0.stream.vendor_id.markup">[0][0][0][0]</property>
    <property name="meta.media.1.stream.type">audio</property>
    <property name="meta.media.1.codec.sample_fmt">fltp</property>
    <property name="meta.media.1.codec.sample_rate">48000</property>
    <property name="meta.media.1.codec.channels">2</property>
    <property name="meta.media.1.codec.layout">stereo</property>
    <property name="meta.media.1.codec.name">aac</property>
    <property name="meta.media.1.codec.long_name">AAC (Advanced Audio Coding)</property>
    <property name="meta.media.1.codec.bit_rate">192000</property>
    <property name="meta.attr.1.stream.handler_name.markup">SoundHandler</property>
    <property name="meta.attr.1.stream.vendor_id.markup">[0][0][0][0]</property>
    <property name="meta.attr.major_brand.markup">isom</property>
    <property name="meta.attr.minor_version.markup">512</property>
    <property name="meta.attr.compatible_brands.markup">isomiso2avc1mp41</property>
    <property name="meta.attr.encoder.markup">Lavf61.1.100</property>
    <property name="seekable">1</property>
    <property name="meta.media.sample_aspect_num">1</property>
    <property name="meta.media.sample_aspect_den">1</property>
    <property name="audio_index">1</property>
    <property name="video_index">0</property>
    <property name="creation_time">2025-07-04T00:02:03</property>
    <property name="vstream">0</property>
    <property name="meta.media.frame_rate_num">60</property>
    <property name="meta.media.frame_rate_den">1</property>
    <property name="meta.media.colorspace">709</property>
    <property name="meta.media.color_trc">1</property>
    <property name="meta.media.has_b_frames">2</property>
    <property name="meta.media.width">1280</property>
    <property name="meta.media.height">720</property>
    <property name="meta.media.aspect_ratio">1</property>
    <property name="meta.media.color_range">mpeg</property>
    <property name="astream">0</property>
    <property name="shotcut:skipConvert">1</property>
    <property name="xml">was here</property>
    <property name="shotcut:hash">6bd93222350217b5a516e575c75814f0</property>
    <property name="meta.media.top_field_first">0</property>
    <property name="meta.media.progressive">1</property>
    <property name="shotcut:caption">visualizarPedidosTroca.mp4</property>
  </chain>
  <chain id="chain29" out="00:00:17.160">
    <property name="length">00:00:17.200</property>
    <property name="eof">pause</property>
    <property name="resource">gravações/estoque.mp4</property>
    <property name="mlt_service">avformat-novalidate</property>
    <property name="meta.media.nb_streams">2</property>
    <property name="meta.media.0.stream.type">video</property>
    <property name="meta.media.0.stream.frame_rate">60</property>
    <property name="meta.media.0.stream.sample_aspect_ratio">0</property>
    <property name="meta.media.0.codec.width">1280</property>
    <property name="meta.media.0.codec.height">720</property>
    <property name="meta.media.0.codec.rotate">0</property>
    <property name="meta.media.0.codec.pix_fmt">yuv420p</property>
    <property name="meta.media.0.codec.sample_aspect_ratio">1</property>
    <property name="meta.media.0.codec.colorspace">709</property>
    <property name="meta.media.0.codec.color_trc">1</property>
    <property name="meta.media.0.codec.name">h264</property>
    <property name="meta.media.0.codec.long_name">H.264 / AVC / MPEG-4 AVC / MPEG-4 part 10</property>
    <property name="meta.media.0.codec.bit_rate">498559</property>
    <property name="meta.attr.0.stream.handler_name.markup">VideoHandler</property>
    <property name="meta.attr.0.stream.vendor_id.markup">[0][0][0][0]</property>
    <property name="meta.media.1.stream.type">audio</property>
    <property name="meta.media.1.codec.sample_fmt">fltp</property>
    <property name="meta.media.1.codec.sample_rate">48000</property>
    <property name="meta.media.1.codec.channels">2</property>
    <property name="meta.media.1.codec.layout">stereo</property>
    <property name="meta.media.1.codec.name">aac</property>
    <property name="meta.media.1.codec.long_name">AAC (Advanced Audio Coding)</property>
    <property name="meta.media.1.codec.bit_rate">192000</property>
    <property name="meta.attr.1.stream.handler_name.markup">SoundHandler</property>
    <property name="meta.attr.1.stream.vendor_id.markup">[0][0][0][0]</property>
    <property name="meta.attr.major_brand.markup">isom</property>
    <property name="meta.attr.minor_version.markup">512</property>
    <property name="meta.attr.compatible_brands.markup">isomiso2avc1mp41</property>
    <property name="meta.attr.encoder.markup">Lavf61.1.100</property>
    <property name="seekable">1</property>
    <property name="meta.media.sample_aspect_num">1</property>
    <property name="meta.media.sample_aspect_den">1</property>
    <property name="audio_index">1</property>
    <property name="video_index">0</property>
    <property name="creation_time">2025-07-03T22:09:57</property>
    <property name="vstream">0</property>
    <property name="meta.media.frame_rate_num">60</property>
    <property name="meta.media.frame_rate_den">1</property>
    <property name="meta.media.colorspace">709</property>
    <property name="meta.media.color_trc">1</property>
    <property name="meta.media.has_b_frames">2</property>
    <property name="meta.media.width">1280</property>
    <property name="meta.media.height">720</property>
    <property name="meta.media.aspect_ratio">1</property>
    <property name="meta.media.color_range">mpeg</property>
    <property name="astream">0</property>
    <property name="shotcut:skipConvert">1</property>
    <property name="xml">was here</property>
    <property name="shotcut:hash">afe3dacc0252e2de74005f56ae5c356d</property>
    <property name="meta.media.top_field_first">0</property>
    <property name="meta.media.progressive">1</property>
    <property name="shotcut:caption">estoque.mp4</property>
  </chain>
  <chain id="chain30" out="00:00:17.600">
    <property name="length">00:00:17.640</property>
    <property name="eof">pause</property>
    <property name="resource">gravações/analiseTest.mp4</property>
    <property name="mlt_service">avformat-novalidate</property>
    <property name="meta.media.nb_streams">2</property>
    <property name="meta.media.0.stream.type">video</property>
    <property name="meta.media.0.stream.frame_rate">60</property>
    <property name="meta.media.0.stream.sample_aspect_ratio">0</property>
    <property name="meta.media.0.codec.width">1280</property>
    <property name="meta.media.0.codec.height">720</property>
    <property name="meta.media.0.codec.rotate">0</property>
    <property name="meta.media.0.codec.pix_fmt">yuv420p</property>
    <property name="meta.media.0.codec.sample_aspect_ratio">1</property>
    <property name="meta.media.0.codec.colorspace">709</property>
    <property name="meta.media.0.codec.color_trc">1</property>
    <property name="meta.media.0.codec.name">h264</property>
    <property name="meta.media.0.codec.long_name">H.264 / AVC / MPEG-4 AVC / MPEG-4 part 10</property>
    <property name="meta.media.0.codec.bit_rate">413162</property>
    <property name="meta.attr.0.stream.handler_name.markup">VideoHandler</property>
    <property name="meta.attr.0.stream.vendor_id.markup">[0][0][0][0]</property>
    <property name="meta.media.1.stream.type">audio</property>
    <property name="meta.media.1.codec.sample_fmt">fltp</property>
    <property name="meta.media.1.codec.sample_rate">48000</property>
    <property name="meta.media.1.codec.channels">2</property>
    <property name="meta.media.1.codec.layout">stereo</property>
    <property name="meta.media.1.codec.name">aac</property>
    <property name="meta.media.1.codec.long_name">AAC (Advanced Audio Coding)</property>
    <property name="meta.media.1.codec.bit_rate">192000</property>
    <property name="meta.attr.1.stream.handler_name.markup">SoundHandler</property>
    <property name="meta.attr.1.stream.vendor_id.markup">[0][0][0][0]</property>
    <property name="meta.attr.major_brand.markup">isom</property>
    <property name="meta.attr.minor_version.markup">512</property>
    <property name="meta.attr.compatible_brands.markup">isomiso2avc1mp41</property>
    <property name="meta.attr.encoder.markup">Lavf61.1.100</property>
    <property name="seekable">1</property>
    <property name="meta.media.sample_aspect_num">1</property>
    <property name="meta.media.sample_aspect_den">1</property>
    <property name="audio_index">1</property>
    <property name="video_index">0</property>
    <property name="creation_time">2025-07-03T22:09:31</property>
    <property name="vstream">0</property>
    <property name="meta.media.frame_rate_num">60</property>
    <property name="meta.media.frame_rate_den">1</property>
    <property name="meta.media.colorspace">709</property>
    <property name="meta.media.color_trc">1</property>
    <property name="meta.media.has_b_frames">2</property>
    <property name="meta.media.width">1280</property>
    <property name="meta.media.height">720</property>
    <property name="meta.media.aspect_ratio">1</property>
    <property name="meta.media.color_range">mpeg</property>
    <property name="astream">0</property>
    <property name="shotcut:skipConvert">1</property>
    <property name="xml">was here</property>
    <property name="shotcut:hash">4008acaef469e5d06c964551cdcae740</property>
    <property name="meta.media.top_field_first">0</property>
    <property name="meta.media.progressive">1</property>
    <property name="shotcut:caption">analiseTest.mp4</property>
  </chain>
  <playlist id="playlist0">
    <property name="shotcut:video">1</property>
    <property name="shotcut:name">V1</property>
    <entry producer="chain15" in="00:00:04.560" out="00:00:15.160"/>
    <entry producer="chain16" in="00:00:05.200" out="00:00:11.000"/>
    <entry producer="chain17" in="00:00:18.520" out="00:00:23.640"/>
    <entry producer="chain18" in="00:00:30.280" out="00:00:31.480"/>
    <entry producer="chain19" in="00:00:10.800" out="00:00:47.920"/>
    <entry producer="chain20" in="00:00:16.480" out="00:00:55.640"/>
    <entry producer="chain21" in="00:00:10.440" out="00:01:02.800"/>
    <entry producer="chain22" in="00:00:08.600" out="00:00:28.000"/>
    <entry producer="chain23" in="00:00:09.480" out="00:00:34.400"/>
    <entry producer="chain24" in="00:00:04.880" out="00:00:29.000"/>
    <entry producer="chain25" in="00:00:30.000" out="00:00:44.680"/>
    <entry producer="chain26" in="00:00:00.000" out="00:00:14.480"/>
    <entry producer="chain27" in="00:00:36.760" out="00:01:07.160"/>
    <entry producer="chain28" in="00:00:06.720" out="00:00:10.280"/>
    <entry producer="chain29" in="00:00:01.520" out="00:00:15.040"/>
    <entry producer="chain30" in="00:00:01.680" out="00:00:16.600"/>
  </playlist>
  <chain id="chain31" out="00:01:08.200">
    <property name="length">00:01:08.240</property>
    <property name="eof">pause</property>
    <property name="resource">cartoon-animation-music-funny-happy-cute-sweet-background-249671.mp3</property>
    <property name="mlt_service">avformat-novalidate</property>
    <property name="meta.media.nb_streams">1</property>
    <property name="meta.media.0.stream.type">audio</property>
    <property name="meta.media.0.codec.sample_fmt">fltp</property>
    <property name="meta.media.0.codec.sample_rate">44100</property>
    <property name="meta.media.0.codec.channels">2</property>
    <property name="meta.media.0.codec.layout">stereo</property>
    <property name="meta.media.0.codec.name">mp3float</property>
    <property name="meta.media.0.codec.long_name">MP3 (MPEG audio layer 3)</property>
    <property name="meta.media.0.codec.bit_rate">256000</property>
    <property name="seekable">1</property>
    <property name="audio_index">0</property>
    <property name="video_index">-1</property>
    <property name="creation_time">2025-07-04T01:53:40</property>
    <property name="astream">0</property>
    <property name="shotcut:skipConvert">1</property>
    <property name="xml">was here</property>
    <property name="shotcut:hash">abac9b01f7f4b34a69651f6459901f50</property>
    <property name="shotcut:caption">cartoon-animation-music-funny-happy-cute-sweet-background-249671.mp3</property>
  </chain>
  <chain id="chain32" out="00:01:08.200">
    <property name="length">00:01:08.240</property>
    <property name="eof">pause</property>
    <property name="resource">cartoon-animation-music-funny-happy-cute-sweet-background-249671.mp3</property>
    <property name="mlt_service">avformat-novalidate</property>
    <property name="meta.media.nb_streams">1</property>
    <property name="meta.media.0.stream.type">audio</property>
    <property name="meta.media.0.codec.sample_fmt">fltp</property>
    <property name="meta.media.0.codec.sample_rate">44100</property>
    <property name="meta.media.0.codec.channels">2</property>
    <property name="meta.media.0.codec.layout">stereo</property>
    <property name="meta.media.0.codec.name">mp3float</property>
    <property name="meta.media.0.codec.long_name">MP3 (MPEG audio layer 3)</property>
    <property name="meta.media.0.codec.bit_rate">256000</property>
    <property name="seekable">1</property>
    <property name="audio_index">0</property>
    <property name="video_index">-1</property>
    <property name="creation_time">2025-07-04T01:53:40</property>
    <property name="astream">0</property>
    <property name="shotcut:skipConvert">1</property>
    <property name="xml">was here</property>
    <property name="shotcut:hash">abac9b01f7f4b34a69651f6459901f50</property>
    <property name="shotcut:caption">cartoon-animation-music-funny-happy-cute-sweet-background-249671.mp3</property>
  </chain>
  <chain id="chain33" out="00:01:08.200">
    <property name="length">00:01:08.240</property>
    <property name="eof">pause</property>
    <property name="resource">cartoon-animation-music-funny-happy-cute-sweet-background-249671.mp3</property>
    <property name="mlt_service">avformat-novalidate</property>
    <property name="meta.media.nb_streams">1</property>
    <property name="meta.media.0.stream.type">audio</property>
    <property name="meta.media.0.codec.sample_fmt">fltp</property>
    <property name="meta.media.0.codec.sample_rate">44100</property>
    <property name="meta.media.0.codec.channels">2</property>
    <property name="meta.media.0.codec.layout">stereo</property>
    <property name="meta.media.0.codec.name">mp3float</property>
    <property name="meta.media.0.codec.long_name">MP3 (MPEG audio layer 3)</property>
    <property name="meta.media.0.codec.bit_rate">256000</property>
    <property name="seekable">1</property>
    <property name="audio_index">0</property>
    <property name="video_index">-1</property>
    <property name="creation_time">2025-07-04T01:53:40</property>
    <property name="astream">0</property>
    <property name="shotcut:skipConvert">1</property>
    <property name="xml">was here</property>
    <property name="shotcut:hash">abac9b01f7f4b34a69651f6459901f50</property>
    <property name="shotcut:caption">cartoon-animation-music-funny-happy-cute-sweet-background-249671.mp3</property>
  </chain>
  <chain id="chain34" out="00:01:08.200">
    <property name="length">00:01:08.240</property>
    <property name="eof">pause</property>
    <property name="resource">cartoon-animation-music-funny-happy-cute-sweet-background-249671.mp3</property>
    <property name="mlt_service">avformat-novalidate</property>
    <property name="meta.media.nb_streams">1</property>
    <property name="meta.media.0.stream.type">audio</property>
    <property name="meta.media.0.codec.sample_fmt">fltp</property>
    <property name="meta.media.0.codec.sample_rate">44100</property>
    <property name="meta.media.0.codec.channels">2</property>
    <property name="meta.media.0.codec.layout">stereo</property>
    <property name="meta.media.0.codec.name">mp3float</property>
    <property name="meta.media.0.codec.long_name">MP3 (MPEG audio layer 3)</property>
    <property name="meta.media.0.codec.bit_rate">256000</property>
    <property name="seekable">1</property>
    <property name="audio_index">0</property>
    <property name="video_index">-1</property>
    <property name="creation_time">2025-07-04T01:53:40</property>
    <property name="astream">0</property>
    <property name="shotcut:skipConvert">1</property>
    <property name="xml">was here</property>
    <property name="shotcut:hash">abac9b01f7f4b34a69651f6459901f50</property>
    <property name="shotcut:caption">cartoon-animation-music-funny-happy-cute-sweet-background-249671.mp3</property>
  </chain>
  <chain id="chain35" out="00:01:08.200">
    <property name="length">00:01:08.240</property>
    <property name="eof">pause</property>
    <property name="resource">cartoon-animation-music-funny-happy-cute-sweet-background-249671.mp3</property>
    <property name="mlt_service">avformat-novalidate</property>
    <property name="meta.media.nb_streams">1</property>
    <property name="meta.media.0.stream.type">audio</property>
    <property name="meta.media.0.codec.sample_fmt">fltp</property>
    <property name="meta.media.0.codec.sample_rate">44100</property>
    <property name="meta.media.0.codec.channels">2</property>
    <property name="meta.media.0.codec.layout">stereo</property>
    <property name="meta.media.0.codec.name">mp3float</property>
    <property name="meta.media.0.codec.long_name">MP3 (MPEG audio layer 3)</property>
    <property name="meta.media.0.codec.bit_rate">256000</property>
    <property name="seekable">1</property>
    <property name="audio_index">0</property>
    <property name="video_index">-1</property>
    <property name="creation_time">2025-07-04T01:53:40</property>
    <property name="astream">0</property>
    <property name="shotcut:skipConvert">1</property>
    <property name="xml">was here</property>
    <property name="shotcut:hash">abac9b01f7f4b34a69651f6459901f50</property>
    <property name="shotcut:caption">cartoon-animation-music-funny-happy-cute-sweet-background-249671.mp3</property>
    <filter id="filter0" out="00:00:39.000">
      <property name="window">75</property>
      <property name="max_gain">20dB</property>
      <property name="level">00:00:38.040=0;00:00:39.000=-60</property>
      <property name="mlt_service">volume</property>
      <property name="shotcut:filter">fadeOutVolume</property>
      <property name="shotcut:animOut">00:00:01.000</property>
    </filter>
  </chain>
  <playlist id="playlist1">
    <property name="shotcut:audio">1</property>
    <property name="shotcut:name">A1</property>
    <entry producer="chain31" in="00:00:00.000" out="00:01:08.200"/>
    <entry producer="chain32" in="00:00:00.000" out="00:01:08.200"/>
    <entry producer="chain33" in="00:00:00.000" out="00:01:08.200"/>
    <entry producer="chain34" in="00:00:00.000" out="00:01:08.200"/>
    <entry producer="chain35" in="00:00:00.000" out="00:00:39.000"/>
    <filter id="filter1" out="00:05:11.960">
      <property name="window">75</property>
      <property name="max_gain">20dB</property>
      <property name="level">-21.8</property>
      <property name="mlt_service">volume</property>
    </filter>
  </playlist>
  <tractor id="tractor0" title="Shotcut version 25.05.11" in="00:00:00.000" out="00:05:11.960">
    <property name="shotcut">1</property>
    <property name="shotcut:scaleFactor">1.41493</property>
    <property name="shotcut:projectAudioChannels">2</property>
    <property name="shotcut:projectFolder">1</property>
    <property name="shotcut:trackHeight">50</property>
    <track producer="background"/>
    <track producer="playlist0"/>
    <track producer="playlist1" hide="video"/>
    <transition id="transition0">
      <property name="a_track">0</property>
      <property name="b_track">1</property>
      <property name="mlt_service">mix</property>
      <property name="always_active">1</property>
      <property name="sum">1</property>
    </transition>
    <transition id="transition1">
      <property name="a_track">0</property>
      <property name="b_track">1</property>
      <property name="version">0.1</property>
      <property name="mlt_service">frei0r.cairoblend</property>
      <property name="threads">0</property>
      <property name="disable">1</property>
    </transition>
    <transition id="transition2">
      <property name="a_track">0</property>
      <property name="b_track">2</property>
      <property name="mlt_service">mix</property>
      <property name="always_active">1</property>
      <property name="sum">1</property>
    </transition>
  </tractor>
</mlt>
